<svg width="11" height="7" viewBox="0 0 11 7" fill="none" xmlns="http://www.w3.org/2000/svg">
<path d="M10.1458 0.508995L9.80804 0.168911C9.70175 0.0627024 9.56033 0.00419142 9.40919 0.00419142C9.25814 0.00419142 9.5 0 9 1.59815e-06L5.5 0.00419142L1.5 3.87281e-05C4.5951 0.00321606 1.05278 0 0.901722 0C0.750667 0 0.609 0.0584272 0.502792 0.164635L0.164971 0.502624C-0.0549902 0.722417 -0.0549902 1.08044 0.164971 1.30023L4.75732 5.9091C4.86345 6.01523 5.00486 6.09 5.15726 6.09H5.15902C5.31016 6.09 5.45158 6.01514 5.5577 5.9091L10.1458 1.31272C10.2521 1.2066 10.3104 1.06091 10.3106 0.909854C10.3106 0.758714 10.2521 0.615036 10.1458 0.508995Z" fill="#FF7300"/>
</svg>
