<svg version="1.1" viewBox="0 0 170 48" width="170" height="48" xmlns="http://www.w3.org/2000/svg">
  <g fill="#F18933">
    <path
      d="m36.82 19.813h8.0786c1.4742 0 2.5356 0.1769 3.2432 0.5307s1.3563 0.8845 1.828 1.5331c0.4717 0.6487 0.7076 1.4742 0.7076 2.4177 0 1.946-1.0614 3.1843-3.1253 3.8329 1.1794 0.2949 2.1229 0.8256 2.7125 1.5922 0.5897 0.8255 0.8846 1.71 0.8846 2.6535 0 1.2973-0.4718 2.4177-1.4742 3.3612-1.0025 0.9435-2.5946 1.4152-4.7764 1.4152h-8.0786v-17.336zm4.0688 3.0663v3.8329h3.0663c1.1204 0 1.828-0.2359 2.1228-0.6486 0.2949-0.4718 0.4128-0.8846 0.4128-1.2973 0-0.4128-0.1179-0.8256-0.3538-1.1204-0.2359-0.2949-0.5307-0.5307-0.7666-0.5897-0.2948-0.059-0.8845-0.1179-1.7101-0.1179h-2.7714v-0.059zm0 6.8992v4.1867h3.1252c1.0615 0 1.8281-0.1769 2.2408-0.5307 0.4128-0.3538 0.6487-0.8845 0.6487-1.5921 0-0.5307-0.2359-1.0614-0.6487-1.4742-0.4127-0.4128-1.1204-0.5897-2.1228-0.5897h-3.2432z" />
    <path d="m57.872 19.813v17.396h-4.0687v-17.396h4.0687z" />
    <path d="m72.378 19.813v3.4201h-4.3047v13.916h-4.1277v-13.916h-4.3047v-3.4201h12.737z" />
  </g>
  <g fill="#fff">
    <path
      d="m81.812 37.209-4.3046-14.152v14.152h-3.4202v-17.396h6.3096l3.0663 10.378 3.1843-10.378h6.3685v17.396h-4.0687v-14.152l-4.3637 14.152h-2.7715z" />
    <path d="m108.94 23.116h-8.256v3.538h6.487v3.2433h-6.487v3.7739h8.256v3.4201h-12.383v-17.278h12.383v3.3022z" />
    <path d="m115.54 33.73h6.899v3.4201h-11.027v-17.336h4.128v13.916z" />
    <path d="m136.95 23.116h-8.256v3.538h6.487v3.2433h-6.487v3.7739h8.256v3.4201h-12.384v-17.278h12.384v3.3022z" />
    <path
      d="m153.4 26.3-4.246 0.2949c-0.059-2.4767-1.003-3.6561-2.89-3.6561-2.122 0-3.184 1.887-3.184 5.661 0 2.1818 0.295 3.656 0.885 4.4226 0.589 0.7665 1.415 1.1793 2.417 1.1793 1.71 0 2.713-1.1204 3.067-3.3022l3.951 0.2359c-0.236 2.0639-1.003 3.656-2.3 4.7174s-2.89 1.6511-4.777 1.6511c-2.299 0-4.186-0.7666-5.602-2.3587-1.415-1.5921-2.181-3.774-2.181-6.6044 0-2.5946 0.707-4.7764 2.064-6.4275 1.415-1.6511 3.302-2.5356 5.719-2.5356 4.187 0 6.546 2.2408 7.077 6.7223z" />
    <path d="m169.14 19.813v17.396h-4.01v-7.1941h-5.425v7.1941h-4.01v-17.396h4.01v6.7813h5.425v-6.7813h4.01z" />
  </g>
  <g fill="#f18933">
    <path
      d="m27.798 11.852 3.3022-11.617s-1.887-0.11794-3.5381-0.1769c-0.8255 0-1.5331-0.058968-2.0049-0.058968h-3.0663c-0.6487 0-1.5921 0.058968-2.1229 0.058968-0.7076 0.058968-1.1203 0.058968-1.1203 0.058968l1.4742 11.676 7.0761 0.0589z" />
    <path
      d="m13.056 13.209-7.6069-7.6658s0.29484-0.41278 1.0024-1.0025c0.64865-0.53071 1.5332-1.2973 2.8894-2.0049 0.47174-0.29484 1.0024-0.53072 1.5921-0.76659 0.1179-0.05896 0.2359-0.11793 0.2948-0.11793 0.2949-0.11794 0.5897-0.23587 0.8846-0.35381 0.4717-0.1769 0.9435-0.29484 1.3562-0.41278 1.1794-0.29484 2.0049-0.41278 2.1229-0.41278 0.7076-0.11794 1.3562-0.1769 1.3562-0.1769l1.5332 11.499s-1.5332 0.1179-2.8305 0.4717c-1.3562 0.3539-2.5945 0.9435-2.5945 0.9435z" />
    <path
      d="m10.992 14.329-6.9582-6.9582s-1.4742 2.0049-2.4766 5.1891c-0.88452 2.6536-1.0025 3.774-1.0025 3.774l6.6634 2.8305s0.47174-1.3563 1.4742-2.6536c1.2383-1.5332 2.2998-2.1818 2.2998-2.1818z" />
    <path
      d="m6.5695 21.287-6.3096-2.6535s-0.35381 2.8894-0.23587 6.3096c0.058968 0.9434 0.1769 3.0073 0.1769 3.0073l5.6019-0.5897s0-1.5331 0.23587-3.3611c0.23588-1.946 0.53071-2.7126 0.53071-2.7126z" />
    <path
      d="m5.803 29.72s0 0.6487 0.11793 1.5922c0.23587 2.7715 0.82555 5.425 0.82555 5.425l-4.3047 1.4153s-0.5307-1.4153-1.1204-3.4791c-0.64865-2.1819-0.94349-4.4226-0.94349-4.4226l5.425-0.5308z" />
  </g>
  <g fill="#F18933">
    <path
      d="m29.508 34.496-16.806-7.0762c0-1.7101 0.1179-3.3022 0.6486-4.8943 0.1769-0.4718 0.2359-0.7076 0.5307-1.1204 0.1769-0.3538 0.5897-0.8256 0.8846-1.0614 0.6486-0.6487 1.3562-1.0025 2.2407-1.2384 0.5897-0.1769 1.1794-0.2948 1.7101-0.3538 0.8845-0.1179 2.5946-0.0589 2.5946-0.0589h2.0049l0.9435 7.6658-4.8943-2.0639 0.5307 3.9509 8.5503 3.597-2.0639-16.57h-5.2481s-2.4767 0-3.9509 0.2359c-0.1769 0-0.3538 0.059-0.5896 0.1179-0.8256 0.118-2.0049 0.4718-3.1253 1.1794-0.5897 0.3538-1.1794 0.8845-1.7101 1.4742-0.1179 0.1179-0.1769 0.1769-0.2359 0.2948-1.0614 1.4153-1.6511 3.1253-2.0049 4.9533-0.23587 1.2384-0.29484 2.4767-0.29484 3.715 0 3.2432 0.29484 6.0147 0.58968 7.6658 0.11793 0.7076 0.41274 1.946 0.70764 2.5357 0.4717 1.0614 1.0024 1.5921 1.3562 1.8869 0.4718 0.4128 1.5332 1.1204 2.1229 1.3563 1.5331 0.7076 6.7813 2.9484 6.7813 2.9484s10.26 4.3046 10.26 4.3636l-1.5332-13.504zm-16.216 0.7665c-0.059-0.4127-0.2359-1.71-0.2359-1.71l-0.2359-2.2998 13.563 5.7199 0.7076 5.543-10.85-4.5405s-1.0615-0.4128-1.4153-0.5897c-0.1769-0.118-0.4127-0.2359-0.7076-0.4718-0.2359-0.1769-0.4128-0.4717-0.5307-0.6486-0.1179-0.2948-0.2359-0.5897-0.2948-1.0025z" />
    <path d="m23.257 39.567 2.3587 1.0024-0.2949-2.7715-2.4176-0.9434 0.3538 2.7125z" />
    <path d="m18.953 37.74 2.4177 1.0614-0.3538-2.7714-2.4177-1.0025 0.3538 2.7125z" />
    <path d="m16.653 34.201-2.4176-1.0024 0.4127 2.7125 2.3587 1.0614-0.3538-2.7715z" />
  </g>
</svg>