<svg xmlns="http://www.w3.org/2000/svg" viewBox="0 0 512 512"><polygon points="182.207 213.349 182.207 298.651 256 341.302 329.793 298.651 329.793 213.349 256 170.698 182.207 213.349" style="fill:#2a5ada"/><path d="M256,0C114.61523,0,0,114.61523,0,256S114.61523,512,256,512,512,397.38476,512,256,397.38477,0,256,0ZM383.95313,329.793l-27.08008,15.57129-73.11621,42.65088-27.08008,15.57129-27.07959-15.57129L155.127,345.36425,128.04688,329.793V182.207L155.127,166.63573l73.793-42.65087L256,108.41357l27.08008,15.57129,73.793,42.65087L383.95313,182.207Z" style="fill:#2a5ada"/></svg>