<svg width="44" height="44" viewBox="0 0 44 44" fill="none" xmlns="http://www.w3.org/2000/svg">
<path d="M22 41.25C33.3909 41.25 42.625 32.0159 42.625 20.625C42.625 9.23413 33.3909 0 22 0C10.6091 0 1.375 9.23413 1.375 20.625C1.375 32.0159 10.6091 41.25 22 41.25Z" fill="black"/>
<path d="M22 41.25C33.3909 41.25 42.625 32.0159 42.625 20.625C42.625 9.23413 33.3909 0 22 0C10.6091 0 1.375 9.23413 1.375 20.625C1.375 32.0159 10.6091 41.25 22 41.25Z" fill="#627EEA"/>
<g style="mix-blend-mode:soft-light">
<path d="M22 41.25C33.3909 41.25 42.625 32.0159 42.625 20.625C42.625 9.23413 33.3909 0 22 0C10.6091 0 1.375 9.23413 1.375 20.625C1.375 32.0159 10.6091 41.25 22 41.25Z" fill="#6379E6"/>
</g>
<path d="M22 40.5625C33.0112 40.5625 41.9375 31.6362 41.9375 20.625C41.9375 9.61382 33.0112 0.6875 22 0.6875C10.9888 0.6875 2.0625 9.61382 2.0625 20.625C2.0625 31.6362 10.9888 40.5625 22 40.5625Z" stroke="#557BF9"/>
<g filter="url(#filter0_d)">
<path d="M22.6847 28.831L33 22.847L22.6847 37.1181L12.375 22.8456L22.6847 28.8282V28.831ZM22.6847 4.125L32.9931 20.9275L22.6847 26.9129L12.375 20.9275L22.6847 4.125Z" fill="black"/>
</g>
<path d="M22.6848 4.125V16.3212L32.9932 20.9275L22.6848 4.125Z" fill="#C1CBF5"/>
<path d="M22.6847 4.125L12.375 20.9275L22.6847 16.3212V4.125Z" fill="white"/>
<path d="M22.6848 28.831V37.1182L33.0001 22.847L22.6848 28.831Z" fill="#C1CBF5"/>
<path d="M22.6847 37.1182V28.8297L12.375 22.847L22.6847 37.1182Z" fill="white"/>
<path d="M22.6848 26.9128L32.9932 20.9275L22.6848 16.324V26.9128Z" fill="#8295EB"/>
<path d="M12.375 20.9275L22.6847 26.9128V16.324L12.375 20.9275Z" fill="#C1CBF5"/>
<defs>
<filter id="filter0_d" x="11.375" y="3.625" width="22.625" height="34.9931" filterUnits="userSpaceOnUse" color-interpolation-filters="sRGB">
<feFlood flood-opacity="0" result="BackgroundImageFix"/>
<feColorMatrix in="SourceAlpha" type="matrix" values="0 0 0 0 0 0 0 0 0 0 0 0 0 0 0 0 0 0 127 0"/>
<feOffset dy="0.5"/>
<feGaussianBlur stdDeviation="0.5"/>
<feColorMatrix type="matrix" values="0 0 0 0 0 0 0 0 0 0 0 0 0 0 0 0 0 0 0.204257 0"/>
<feBlend mode="normal" in2="BackgroundImageFix" result="effect1_dropShadow"/>
<feBlend mode="normal" in="SourceGraphic" in2="effect1_dropShadow" result="shape"/>
</filter>
</defs>
</svg>
