<svg id="CIRCLE_OUTLINE_BLACK" data-name="CIRCLE OUTLINE BLACK" xmlns="http://www.w3.org/2000/svg" viewBox="0 0 512 512"><path d="M224.43224,229.52783c2.75635,0,6.57324-1.69653,7.8457-3.39306,1.69629-2.54444,1.06055-5.301-2.1206-7.20948-5.7251-3.605-14.41895-.63623-14.41895,4.877C215.73839,226.55908,220.191,229.52783,224.43224,229.52783Z" style="fill:#ff007a"/><path d="M123.70812,329.82764c2.96875,2.33252,6.99756,1.06054,9.11816-2.75684a8.75363,8.75363,0,0,0-2.75635-11.6626c-3.605-2.33252-9.11816-1.27246-9.11816,1.90821a2.16388,2.16388,0,0,0,1.69629,2.1206c1.9082,1.06006,2.1206,2.12061.63623,4.45313S121.79991,328.34326,123.70812,329.82764Z" style="fill:#ff007a"/><path d="M256.00011,0A254.9011,254.9011,0,0,0,96.62853,55.66211c41.8208,45.82178,105.86523,116.36963,112.53613,124.03369l2.75684,2.96875-.21241,4.8772c-.21191,6.57348-2.33252,11.02661-7.20947,15.47973-5.51367,5.30127-12.51123,8.05787-23.32568,9.54224-6.57373.84815-8.90625,1.90845-11.6626,4.8772-2.54492,2.75635-3.605,6.36133-4.24121,15.26758-1.06006,13.99536-2.75684,19.7207-9.33008,33.5039-6.36182,13.35913-7.63428,18.23633-6.57373,25.44629,1.27246,8.48193,6.14941,14.84375,17.6001,22.689,8.69433,5.9375,12.72314,9.75439,14.84375,14.41992,1.272,2.96826,1.48388,4.02832,1.48388,8.90576,0,7.63428-1.272,10.603-6.36132,16.11572-8.27,8.90625-23.3252,16.11573-41.56153,20.35694-7.63379,1.69629-8.0581,1.69629-8.0581,0,0-2.12061-2.96875-7.84571-7.84571-15.4795-5.72558-8.69384-8.0581-13.14746-10.17871-19.9331-2.33252-7.63379-3.18066-12.72266-2.75634-20.78028.42382-7.63378,1.272-11.02685,4.24072-16.96435,2.33252-4.8772,3.81689-6.99756,13.35937-18.87231,16.32764-20.14527,22.05323-32.01978,24.17334-48.77173,1.90869-15.05567,4.45313-22.26514,10.17871-28.627,3.39258-3.81689,4.24122-5.301,4.24122-8.05786,0-1.27221-5.30127-11.66284-21.6294-40.71362-25.87012-46.22705-25.87012-46.22705-25.022-45.803.21191.21216,12.29931,18.66065,26.50635,40.92578,18.66064,29.051,26.93066,41.1377,28.83886,43.04614a15.30084,15.30084,0,0,0,10.17823,4.45313,32.4455,32.4455,0,0,0,12.08691-3.39282c5.30127-2.96875,6.57373-6.99781,3.39307-11.23853-3.18213-4.24316-56.62647-69.80273-102.94483-126.26513A255.481,255.481,0,0,0,.00011,256c0,141.38867,114.61133,256,256,256s256-114.61133,256-256C512.00011,114.61108,397.38878,0,256.00011,0ZM329.8214,136.22559c.42383-.42408,12.93457,3.18066,17.812,5.30127,7.42188,2.96875,8.69385,3.18066,9.54248,2.96875.63574-.63623,1.06006-2.33252,1.272-7.63379.42432-8.05786,1.48438-13.35913,3.8169-18.23633.84814-1.90845,1.69678-3.605,1.90869-3.605s-.2124,1.48437-.84815,3.18066c-1.69628,4.66529-1.90869,11.23877-.84814,18.66065,1.48438,9.542,2.12061,10.81445,12.29883,21.20483,4.665,4.8772,10.17822,11.02686,12.29883,13.57129l3.605,4.66528-3.605-3.39282c-4.45313-4.241-14.63135-12.29907-16.96387-13.35937-1.48438-.84815-1.69629-.84815-2.75684.21215-.84814.84815-1.06006,2.12036-1.06006,8.27-.2124,9.54224-1.48437,15.4795-4.665,21.62915-1.69678,3.18067-1.9087,2.54444-.42432-1.0603,1.06006-2.75684,1.27246-4.02881,1.27246-13.147,0-18.44849-2.12061-22.90161-15.05566-30.32324-3.18067-1.9087-8.69385-4.665-11.875-6.14942A46.96336,46.96336,0,0,1,329.8214,136.22559Zm-131.89551-27.3545c4.02881-.63623,13.35938.21192,19.93262,1.69629,15.26758,3.605,29.05127,12.93531,43.68261,29.26319l3.8169,4.45288,5.51318-.84839c23.5376-3.8169,47.71143-.84815,67.85645,8.48218,5.51318,2.54467,14.207,7.63379,15.26709,8.90625.42431.42407,1.06055,3.18066,1.48437,5.93725,1.48438,9.96631.84815,17.38819-2.33252,23.11353-1.69629,3.18066-1.69629,4.02905-.63623,6.78564a6.38589,6.38589,0,0,0,5.72559,3.605c5.08935,0,10.39062-8.0581,12.93506-19.29663l1.06054-4.45312,1.90821,2.1206c10.81445,12.08667,19.29638,28.83887,20.56885,40.71338l.42382,3.18115-1.9082-2.75683A35.80689,35.80689,0,0,0,383.046,208.959c-7.21-4.87719-14.84375-6.36157-34.98828-7.42187-18.23633-1.0603-28.627-2.54468-38.80567-5.9375-17.38769-5.72534-26.29394-13.147-46.86279-40.50171-9.11816-12.08667-14.84375-18.6604-20.56885-24.17358-12.51123-12.08692-25.022-18.44849-41.3501-20.99292C196.0172,109.29517,195.80529,109.083,197.92589,108.87109ZM317.9464,267.69678a50.237,50.237,0,0,0-2.12061-8.90576l-1.06006-3.18116,1.90821,2.33252a37.32294,37.32294,0,0,1,6.78564,12.29908c1.48438,4.029,1.48438,5.301,1.48438,11.875,0,6.36132-.21192,7.84594-1.48438,11.45043a38.36859,38.36859,0,0,1-8.90625,14.20752c-7.6333,7.84571-17.6001,12.08692-31.80713,13.99512-2.54492.2124-9.75439.84863-16.11621,1.27246-15.90332.84815-26.50586,2.54444-36.04834,5.9375-1.27246.42383-2.54443.84815-2.75683.63623-.42383-.42431,6.14941-4.24121,11.45068-6.78564,7.42187-3.605,15.05566-5.51319,31.80762-8.48194,8.27-1.27246,16.75195-2.96875,18.87256-3.81738C310.94884,303.95752,321.339,287.62964,317.9464,267.69678Zm-108.78174-99.2395c-8.90625-12.29908-14.63184-31.38355-13.35937-45.59082l.42431-4.45313,2.12061.42407a49.77115,49.77115,0,0,1,13.57129,5.08936c8.48193,5.08911,12.29834,12.08691,15.90332,29.47485,1.06005,5.08936,2.54492,11.02661,3.18066,12.9353,1.06055,3.18067,5.08936,10.60254,8.48242,15.26758,2.33252,3.39258.84815,5.08911-4.45312,4.665C226.97667,185.42139,216.16222,177.99951,209.16466,168.45728ZM207.256,228.04346c1.48437-5.51319,6.36182-11.02686,11.45117-12.511,3.39258-1.0603,9.96582-.42407,13.14648,1.27222,6.14991,3.18066,10.60254,10.17846,9.54249,15.26758-1.06006,6.14965-11.02637,11.23877-22.689,11.23877-5.9375,0-8.0581-.84815-10.39062-3.8169C206.83214,237.58569,206.40782,231.43628,207.256,228.04346ZM331.09337,423.978a30.02,30.02,0,0,1-15.26758,3.605c-10.17822,0-18.87256-5.30176-25.87011-15.9043-1.48438-2.12012-4.45313-8.26953-6.99756-13.99512-7.42188-17.17627-11.23877-22.26513-19.93262-27.99072-7.63379-4.87744-17.38818-5.937-24.81006-2.33252-9.75439,4.665-12.29932,17.17627-5.51318,24.81006a21.68362,21.68362,0,0,0,12.08691,6.36182,12.93687,12.93687,0,0,0,14.63135-12.93555c0-5.08936-1.90869-8.05811-6.99756-10.39014-6.78564-2.96875-14.20752.42383-13.9956,6.99756,0,2.75684,1.27246,4.45313,4.0288,5.72559,1.69678.84814,1.69678.84814.42432.63574-6.14941-1.27246-7.63379-8.90625-2.75684-13.7832,5.9375-5.9375,18.44873-3.39258,22.68946,4.87695,1.69677,3.39307,1.90869,10.17871.42431,14.41943-3.605,9.33057-13.7832,14.20752-24.17382,11.45118-6.99756-1.9087-9.96631-3.81739-18.44825-12.51124-14.84375-15.26757-20.56884-18.23632-41.77392-21.417l-4.02881-.63623,4.45312-4.24072c15.69141-13.14746,34.98829-22.47754,52.8003-25.44629,7.63379-1.27246,20.35693-.84814,27.35449,1.06055,11.23877,2.96875,21.417,9.33008,26.71826,17.17578,5.08936,7.63379,7.42188,14.207,9.7544,28.83887.84814,5.72509,1.90869,11.66259,2.1206,12.935,1.69629,7.63379,5.08887,13.57129,9.33008,16.752,6.57373,4.87744,18.02441,5.08935,29.26318.84814,1.90821-.63574,3.605-1.27246,3.605-1.06006C340.63585,418.25293,334.91027,422.06982,331.09337,423.978Zm71.88525-69.34033c-4.665,18.02441-15.26757,32.44384-30.74707,40.71337a29.49084,29.49084,0,0,1-4.45312,2.12061c-.2124,0,.63623-2.12061,1.9082-4.665,5.08936-10.81445,5.72559-21.20508,1.90869-32.86768-2.33252-7.21-7.21-15.9038-16.96435-30.53564-11.6626-16.96387-14.41895-21.417-17.3877-27.56641q-8.27051-18.13-3.81689-34.352c.42383-1.0603.84814-2.1206,1.272-2.1206a9.12273,9.12273,0,0,1,2.96875,1.48437c2.54492,1.69654,7.8457,4.66529,21.417,12.08692,17.17627,9.33007,26.93067,16.54,33.71582,24.80957,5.9375,7.21,9.54248,15.48,11.23877,25.6582C405.09923,335.12891,404.463,348.91211,402.97862,354.6377Zm12.72315-57.88965c-1.48438,5.30078-5.72559,15.05517-6.78565,15.26757-.2124,0-.63623-1.06054-.63623-2.75683-.42431-8.90625-4.87744-17.38818-12.29931-23.96191-8.90576-7.63379-20.35645-13.35914-48.34717-24.59766-41.98584-16.96411-56.82959-31.5957-56.82959-56.40527,0-3.605.2124-6.57374.2124-6.57374a39.83391,39.83391,0,0,1,3.60449,2.7566c8.48194,6.78564,18.02442,9.75439,44.53077,13.57153,15.47949,2.33228,24.38574,4.02881,32.44384,6.7854,25.65772,8.48193,41.562,25.87012,45.37842,49.40772C418.03429,277.0271,417.39806,289.9624,415.70177,296.74805Z" style="fill:#ff007a"/></svg>