<svg width="42" height="42" viewBox="0 0 42 42" fill="none" xmlns="http://www.w3.org/2000/svg">
<path d="M21 42C32.598 42 42 32.598 42 21C42 9.40202 32.598 0 21 0C9.40202 0 0 9.40202 0 21C0 32.598 9.40202 42 21 42Z" fill="#3468D1"/>
<path fill-rule="evenodd" clip-rule="evenodd" d="M18.6583 14.5581C19.0689 14.5581 19.4701 14.6799 19.8115 14.9081C20.1528 15.1362 20.4188 15.4604 20.5758 15.8397C20.7329 16.219 20.7739 16.6363 20.6938 17.039C20.6137 17.4416 20.416 17.8114 20.1256 18.1017C19.8353 18.3919 19.4655 18.5896 19.0628 18.6697C18.6602 18.7497 18.2429 18.7086 17.8636 18.5515C17.4843 18.3944 17.1602 18.1283 16.9321 17.787C16.704 17.4456 16.5823 17.0443 16.5823 16.6338C16.5824 16.0833 16.8011 15.5553 17.1905 15.166C17.5798 14.7768 18.1078 14.5581 18.6583 14.5581ZM23.6698 14.5581C24.0803 14.5582 24.4816 14.68 24.8229 14.9081C25.1642 15.1363 25.4301 15.4605 25.5872 15.8398C25.7442 16.2191 25.7852 16.6364 25.7051 17.0391C25.6249 17.4417 25.4272 17.8115 25.1369 18.1017C24.8466 18.392 24.4767 18.5896 24.0741 18.6697C23.6714 18.7497 23.2541 18.7086 22.8748 18.5515C22.4956 18.3943 22.1714 18.1283 21.9434 17.787C21.7153 17.4456 21.5936 17.0443 21.5936 16.6338C21.5937 16.0832 21.8125 15.5552 22.2018 15.166C22.5912 14.7767 23.1192 14.558 23.6698 14.5581ZM23.6698 23.2905C24.0803 23.2906 24.4816 23.4124 24.8229 23.6405C25.1642 23.8687 25.4301 24.1929 25.5872 24.5722C25.7442 24.9515 25.7852 25.3688 25.7051 25.7715C25.6249 26.1741 25.4272 26.5439 25.1369 26.8341C24.8466 27.1244 24.4767 27.322 24.0741 27.4021C23.6714 27.4821 23.2541 27.441 22.8748 27.2839C22.4956 27.1267 22.1714 26.8607 21.9434 26.5194C21.7153 26.178 21.5936 25.7767 21.5936 25.3662C21.5936 25.0936 21.6473 24.8236 21.7517 24.5718C21.856 24.3199 22.009 24.0911 22.2018 23.8983C22.3946 23.7056 22.6234 23.5527 22.8753 23.4484C23.1272 23.3441 23.3972 23.2904 23.6698 23.2905ZM18.6583 23.2905C19.0689 23.2905 19.4701 23.4123 19.8115 23.6405C20.1528 23.8686 20.4188 24.1928 20.5758 24.5721C20.7329 24.9514 20.7739 25.3687 20.6938 25.7714C20.6137 26.174 20.416 26.5438 20.1256 26.8341C19.8353 27.1243 19.4655 27.322 19.0628 27.4021C18.6602 27.4821 18.2429 27.441 17.8636 27.2839C17.4843 27.1268 17.1602 26.8607 16.9321 26.5194C16.704 26.178 16.5823 25.7767 16.5823 25.3662C16.5823 25.0936 16.636 24.8237 16.7404 24.5718C16.8447 24.32 16.9976 24.0911 17.1904 23.8984C17.3832 23.7056 17.6121 23.5527 17.8639 23.4484C18.1158 23.3441 18.3857 23.2905 18.6583 23.2905ZM16.0811 18.9958C16.4916 18.9959 16.8929 19.1177 17.2342 19.3458C17.5755 19.5739 17.8415 19.8981 17.9986 20.2774C18.1556 20.6567 18.1967 21.0741 18.1165 21.4767C18.0364 21.8793 17.8387 22.2491 17.5484 22.5394C17.2581 22.8297 16.8882 23.0273 16.4856 23.1074C16.0829 23.1875 15.6656 23.1463 15.2863 22.9892C14.9071 22.8321 14.5829 22.566 14.3548 22.2247C14.1268 21.8834 14.005 21.4821 14.005 21.0715C14.0051 20.521 14.2239 19.993 14.6132 19.6038C15.0025 19.2145 15.5305 18.9958 16.0811 18.9958ZM26.247 18.9958C26.6576 18.9959 27.0588 19.1177 27.4001 19.3459C27.7414 19.574 28.0074 19.8982 28.1644 20.2775C28.3214 20.6568 28.3625 21.0742 28.2823 21.4768C28.2022 21.8794 28.0044 22.2492 27.7141 22.5395C27.4238 22.8297 27.054 23.0273 26.6513 23.1074C26.2487 23.1875 25.8314 23.1463 25.4521 22.9892C25.0728 22.8321 24.7487 22.566 24.5206 22.2247C24.2926 21.8834 24.1708 21.482 24.1708 21.0715C24.1709 20.7989 24.2246 20.529 24.3289 20.2771C24.4333 20.0252 24.5862 19.7964 24.779 19.6036C24.9718 19.4109 25.2007 19.258 25.4526 19.1537C25.7045 19.0494 25.9744 18.9958 26.247 18.9958ZM28.6095 15.4171C28.8643 15.4172 29.1134 15.4928 29.3252 15.6344C29.5371 15.776 29.7022 15.9773 29.7996 16.2127C29.8971 16.4481 29.9226 16.7072 29.8728 16.9571C29.8231 17.207 29.7003 17.4365 29.5201 17.6166C29.3399 17.7968 29.1104 17.9195 28.8605 17.9691C28.6105 18.0188 28.3515 17.9933 28.1161 17.8958C27.8807 17.7983 27.6795 17.6331 27.5379 17.4213C27.3964 17.2094 27.3208 16.9603 27.3208 16.7055C27.3208 16.5363 27.3542 16.3687 27.4189 16.2124C27.4837 16.056 27.5786 15.914 27.6983 15.7944C27.818 15.6747 27.96 15.5798 28.1164 15.5151C28.2728 15.4504 28.4403 15.4171 28.6095 15.4171ZM28.6095 24.0061C28.8643 24.0062 29.1134 24.0818 29.3252 24.2234C29.5371 24.365 29.7022 24.5663 29.7996 24.8017C29.8971 25.0371 29.9226 25.2962 29.8728 25.5461C29.8231 25.796 29.7003 26.0255 29.5201 26.2056C29.3399 26.3858 29.1104 26.5085 28.8605 26.5581C28.6105 26.6078 28.3515 26.5823 28.1161 26.4848C27.8807 26.3873 27.6795 26.2221 27.5379 26.0103C27.3964 25.7984 27.3208 25.5493 27.3208 25.2945C27.3208 25.1253 27.3542 24.9577 27.4189 24.8014C27.4837 24.6451 27.5786 24.503 27.6983 24.3834C27.818 24.2637 27.96 24.1688 28.1164 24.1041C28.2728 24.0394 28.4403 24.0061 28.6095 24.0061ZM13.7186 24.0061C13.9734 24.0061 14.2225 24.0817 14.4343 24.2233C14.6462 24.3649 14.8113 24.5662 14.9088 24.8016C15.0063 25.037 15.0318 25.296 14.982 25.546C14.9323 25.7959 14.8096 26.0254 14.6294 26.2056C14.4492 26.3857 14.2196 26.5084 13.9697 26.5581C13.7198 26.6078 13.4607 26.5823 13.2253 26.4848C12.9899 26.3873 12.7887 26.2221 12.6472 26.0103C12.5056 25.7984 12.43 25.5493 12.43 25.2945C12.4301 24.9528 12.5659 24.6251 12.8075 24.3835C13.0491 24.1419 13.3769 24.0061 13.7186 24.0061ZM13.7186 15.4171C13.9734 15.4172 14.2225 15.4927 14.4343 15.6343C14.6462 15.7759 14.8113 15.9771 14.9088 16.2126C15.0063 16.448 15.0318 16.707 14.982 16.9569C14.9323 17.2069 14.8096 17.4364 14.6294 17.6166C14.4492 17.7967 14.2196 17.9194 13.9697 17.9691C13.7198 18.0188 13.4607 17.9933 13.2253 17.8958C12.9899 17.7983 12.7887 17.6331 12.6472 17.4213C12.5056 17.2094 12.43 16.9603 12.43 16.7055C12.4301 16.3638 12.5659 16.0361 12.8075 15.7945C13.0491 15.5529 13.3769 15.4171 13.7186 15.4171ZM21.1641 11.1225C21.4189 11.1225 21.6679 11.1981 21.8798 11.3397C22.0916 11.4814 22.2567 11.6826 22.3541 11.918C22.4516 12.1535 22.4771 12.4125 22.4273 12.6624C22.3776 12.9123 22.2548 13.1418 22.0746 13.322C21.8944 13.5021 21.6649 13.6248 21.415 13.6745C21.165 13.7242 20.906 13.6986 20.6706 13.6011C20.4352 13.5036 20.234 13.3385 20.0925 13.1266C19.9509 12.9147 19.8753 12.6656 19.8753 12.4108C19.8753 12.2416 19.9087 12.074 19.9735 11.9177C20.0382 11.7614 20.1332 11.6193 20.2528 11.4997C20.3725 11.3801 20.5146 11.2852 20.6709 11.2204C20.8273 11.1557 20.9948 11.1224 21.1641 11.1225ZM21.1641 28.3008C21.4189 28.3008 21.6679 28.3765 21.8798 28.5181C22.0916 28.6597 22.2567 28.8609 22.3541 29.0963C22.4516 29.3318 22.4771 29.5908 22.4273 29.8407C22.3776 30.0906 22.2548 30.3202 22.0746 30.5003C21.8944 30.6805 21.6649 30.8031 21.415 30.8528C21.165 30.9025 20.906 30.877 20.6706 30.7794C20.4352 30.6819 20.234 30.5168 20.0925 30.3049C19.9509 30.0931 19.8753 29.844 19.8753 29.5892C19.8753 29.4199 19.9087 29.2524 19.9735 29.0961C20.0382 28.9397 20.1332 28.7977 20.2528 28.678C20.3725 28.5584 20.5146 28.4635 20.6709 28.3988C20.8273 28.334 20.9948 28.3007 21.1641 28.3008ZM26.6766 29.5892C26.8889 29.5892 27.0964 29.6523 27.2729 29.7703C27.4495 29.8883 27.587 30.056 27.6682 30.2522C27.7494 30.4483 27.7707 30.6642 27.7292 30.8724C27.6877 31.0807 27.5854 31.272 27.4353 31.4221C27.2851 31.5722 27.0938 31.6744 26.8856 31.7158C26.6773 31.7572 26.4615 31.7359 26.2653 31.6547C26.0691 31.5734 25.9015 31.4358 25.7835 31.2592C25.6656 31.0827 25.6026 30.8751 25.6026 30.6628C25.6026 30.5218 25.6304 30.3821 25.6844 30.2519C25.7383 30.1216 25.8175 30.0032 25.9172 29.9035C26.0169 29.8038 26.1353 29.7247 26.2656 29.6708C26.3959 29.6169 26.5355 29.5891 26.6766 29.5892ZM15.6516 29.5892C15.8639 29.5892 16.0714 29.6523 16.2479 29.7703C16.4245 29.8883 16.562 30.056 16.6432 30.2522C16.7244 30.4483 16.7457 30.6642 16.7042 30.8724C16.6627 31.0807 16.5604 31.272 16.4103 31.4221C16.2601 31.5722 16.0688 31.6744 15.8606 31.7158C15.6523 31.7572 15.4365 31.7359 15.2403 31.6547C15.0441 31.5734 14.8765 31.4358 14.7585 31.2592C14.6406 31.0827 14.5776 30.8751 14.5776 30.6628C14.5776 30.5218 14.6054 30.3821 14.6594 30.2519C14.7133 30.1216 14.7925 30.0032 14.8922 29.9035C14.9919 29.8038 15.1103 29.7247 15.2406 29.6708C15.3709 29.6169 15.5105 29.5891 15.6516 29.5892ZM15.6516 10.2636C15.8639 10.2637 16.0714 10.3267 16.2479 10.4447C16.4245 10.5627 16.562 10.7304 16.6432 10.9266C16.7244 11.1228 16.7457 11.3386 16.7042 11.5469C16.6627 11.7551 16.5604 11.9464 16.4103 12.0965C16.2601 12.2466 16.0688 12.3488 15.8606 12.3902C15.6523 12.4316 15.4365 12.4104 15.2403 12.3291C15.0441 12.2478 14.8765 12.1102 14.7585 11.9337C14.6406 11.7571 14.5776 11.5495 14.5776 11.3372C14.5776 11.1962 14.6054 11.0566 14.6594 10.9263C14.7133 10.796 14.7925 10.6776 14.8922 10.5779C14.9919 10.4782 15.1103 10.3992 15.2406 10.3452C15.3709 10.2913 15.5105 10.2635 15.6516 10.2636ZM26.6766 10.2636C26.8889 10.2637 27.0964 10.3267 27.2729 10.4447C27.4495 10.5627 27.587 10.7304 27.6682 10.9266C27.7494 11.1228 27.7707 11.3386 27.7292 11.5469C27.6877 11.7551 27.5854 11.9464 27.4353 12.0965C27.2851 12.2466 27.0938 12.3488 26.8856 12.3902C26.6773 12.4316 26.4615 12.4104 26.2653 12.3291C26.0691 12.2478 25.9015 12.1102 25.7835 11.9337C25.6656 11.7571 25.6026 11.5495 25.6026 11.3372C25.6026 11.1962 25.6304 11.0566 25.6844 10.9263C25.7383 10.796 25.8175 10.6776 25.9172 10.5779C26.0169 10.4782 26.1353 10.3992 26.2656 10.3452C26.3959 10.2913 26.5355 10.2635 26.6766 10.2636ZM32.2606 19.8548C32.4729 19.8549 32.6805 19.9179 32.857 20.0359C33.0336 20.1539 33.1711 20.3215 33.2524 20.5177C33.3336 20.7139 33.3548 20.9298 33.3134 21.138C33.272 21.3463 33.1697 21.5376 33.0195 21.6877C32.8694 21.8378 32.6781 21.9401 32.4698 21.9815C32.2616 22.0229 32.0457 22.0016 31.8495 21.9204C31.6534 21.8391 31.4857 21.7015 31.3677 21.5249C31.2498 21.3484 31.1868 21.1408 31.1868 20.9285C31.1868 20.6437 31.3 20.3706 31.5014 20.1693C31.7027 19.968 31.9758 19.8548 32.2606 19.8548ZM10.0674 19.8548C10.2797 19.8549 10.4873 19.9179 10.6638 20.0359C10.8403 20.1539 10.9779 20.3215 11.0592 20.5177C11.1404 20.7139 11.1616 20.9298 11.1202 21.138C11.0787 21.3463 10.9765 21.5376 10.8263 21.6877C10.6762 21.8378 10.4849 21.9401 10.2766 21.9815C10.0683 22.0229 9.85248 22.0016 9.65631 21.9204C9.46014 21.8391 9.29247 21.7015 9.1745 21.5249C9.05654 21.3484 8.99358 21.1408 8.99358 20.9285C8.99358 20.7875 9.02135 20.6478 9.07532 20.5176C9.12928 20.3873 9.20838 20.2689 9.30809 20.1692C9.40781 20.0695 9.52618 19.9905 9.65646 19.9365C9.78674 19.8826 9.92636 19.8548 10.0674 19.8548ZM9.27987 13.2697C9.44978 13.2697 9.61587 13.3201 9.75714 13.4145C9.89841 13.5089 10.0085 13.6431 10.0735 13.8C10.1385 13.957 10.1555 14.1297 10.1224 14.2964C10.0892 14.463 10.0074 14.6161 9.88724 14.7362C9.76708 14.8563 9.614 14.9382 9.44735 14.9713C9.28071 15.0044 9.10798 14.9874 8.95102 14.9223C8.79405 14.8573 8.6599 14.7472 8.56553 14.6059C8.47116 14.4646 8.4208 14.2985 8.42084 14.1286C8.42088 13.9008 8.5114 13.6823 8.6725 13.5212C8.83359 13.3602 9.05207 13.2697 9.27987 13.2697ZM9.27987 27.0124C9.44978 27.0124 9.61587 27.0628 9.75714 27.1572C9.89841 27.2516 10.0085 27.3858 10.0735 27.5427C10.1385 27.6997 10.1555 27.8724 10.1224 28.0391C10.0892 28.2057 10.0074 28.3588 9.88724 28.4789C9.76708 28.599 9.614 28.6808 9.44735 28.714C9.28071 28.7471 9.10798 28.7301 8.95102 28.665C8.79405 28.6 8.6599 28.4899 8.56553 28.3486C8.47116 28.2073 8.4208 28.0412 8.42084 27.8713C8.42088 27.6435 8.5114 27.425 8.6725 27.2639C8.83359 27.1029 9.05207 27.0124 9.27987 27.0124ZM33.0481 27.0124C33.218 27.0124 33.3841 27.0628 33.5254 27.1572C33.6666 27.2516 33.7767 27.3858 33.8418 27.5427C33.9068 27.6997 33.9238 27.8724 33.8906 28.0391C33.8574 28.2057 33.7756 28.3588 33.6555 28.4789C33.5353 28.599 33.3822 28.6808 33.2156 28.714C33.0489 28.7471 32.8762 28.7301 32.7192 28.665C32.5623 28.6 32.4281 28.4899 32.3338 28.3486C32.2394 28.2073 32.189 28.0412 32.1891 27.8713C32.1891 27.6435 32.2796 27.425 32.4407 27.2639C32.6018 27.1029 32.8203 27.0124 33.0481 27.0124ZM33.0481 13.2697C33.218 13.2697 33.3841 13.3201 33.5254 13.4145C33.6666 13.5089 33.7767 13.6431 33.8418 13.8C33.9068 13.957 33.9238 14.1297 33.8906 14.2964C33.8574 14.463 33.7756 14.6161 33.6555 14.7362C33.5353 14.8563 33.3822 14.9382 33.2156 14.9713C33.0489 15.0044 32.8762 14.9874 32.7192 14.9223C32.5623 14.8573 32.4281 14.7472 32.3338 14.6059C32.2394 14.4646 32.189 14.2985 32.1891 14.1286C32.1891 13.9008 32.2796 13.6823 32.4407 13.5212C32.6018 13.3602 32.8203 13.2697 33.0481 13.2697ZM21.1641 6.39844C21.334 6.39847 21.5 6.44889 21.6413 6.5433C21.7825 6.63772 21.8926 6.77191 21.9576 6.92889C22.0226 7.08587 22.0396 7.25859 22.0064 7.42522C21.9732 7.59185 21.8914 7.7449 21.7712 7.86502C21.6511 7.98513 21.498 8.06691 21.3313 8.10003C21.1647 8.13314 20.992 8.1161 20.835 8.05105C20.6781 7.986 20.5439 7.87586 20.4495 7.73458C20.3552 7.59329 20.3048 7.4272 20.3049 7.2573C20.3049 7.14449 20.3271 7.03278 20.3703 6.92856C20.4135 6.82433 20.4768 6.72964 20.5565 6.64988C20.6363 6.57012 20.731 6.50686 20.8353 6.46372C20.9395 6.42057 21.0512 6.39839 21.1641 6.39844ZM21.1641 33.8837C21.334 33.8837 21.5 33.9341 21.6413 34.0285C21.7825 34.1229 21.8926 34.2571 21.9576 34.4141C22.0226 34.571 22.0396 34.7438 22.0064 34.9104C21.9732 35.077 21.8914 35.2301 21.7713 35.3502C21.6511 35.4703 21.4981 35.5521 21.3314 35.5852C21.1648 35.6184 20.9921 35.6013 20.8351 35.5363C20.6782 35.4713 20.544 35.3612 20.4496 35.2199C20.3552 35.0787 20.3049 34.9126 20.3049 34.7427C20.3049 34.6299 20.3271 34.5182 20.3703 34.4139C20.4135 34.3097 20.4767 34.215 20.5565 34.1352C20.6363 34.0554 20.731 33.9922 20.8353 33.949C20.9395 33.9059 21.0512 33.8836 21.1641 33.8837ZM28.7526 33.3111C28.8942 33.3111 29.0326 33.3531 29.1503 33.4317C29.268 33.5104 29.3597 33.6222 29.4139 33.753C29.4681 33.8838 29.4823 34.0277 29.4547 34.1665C29.427 34.3054 29.3589 34.4329 29.2588 34.533C29.1587 34.6332 29.0311 34.7013 28.8923 34.7289C28.7534 34.7566 28.6095 34.7424 28.4787 34.6882C28.3479 34.634 28.2361 34.5423 28.1574 34.4246C28.0788 34.3069 28.0368 34.1685 28.0368 34.0269C28.0368 33.9329 28.0553 33.8398 28.0913 33.753C28.1273 33.6661 28.18 33.5872 28.2465 33.5207C28.3129 33.4543 28.3918 33.4015 28.4787 33.3656C28.5655 33.3296 28.6586 33.3111 28.7526 33.3111ZM13.5754 33.3111C13.7169 33.3111 13.8553 33.3531 13.973 33.4317C14.0907 33.5104 14.1825 33.6222 14.2367 33.753C14.2908 33.8838 14.305 34.0277 14.2774 34.1665C14.2498 34.3054 14.1816 34.4329 14.0815 34.533C13.9814 34.6332 13.8539 34.7013 13.715 34.7289C13.5761 34.7566 13.4322 34.7424 13.3014 34.6882C13.1706 34.634 13.0588 34.5423 12.9802 34.4246C12.9015 34.3069 12.8595 34.1685 12.8595 34.0269C12.8595 33.9329 12.8781 33.8398 12.914 33.753C12.95 33.6661 13.0027 33.5872 13.0692 33.5207C13.1357 33.4543 13.2146 33.4015 13.3014 33.3656C13.3883 33.3296 13.4813 33.3111 13.5754 33.3111ZM13.5754 7.25796C13.7169 7.25796 13.8553 7.29994 13.973 7.3786C14.0907 7.45725 14.1825 7.56905 14.2367 7.69984C14.2908 7.83064 14.305 7.97456 14.2774 8.11341C14.2498 8.25227 14.1816 8.37981 14.0815 8.47992C13.9814 8.58003 13.8539 8.6482 13.715 8.67582C13.5761 8.70344 13.4322 8.68926 13.3014 8.63508C13.1706 8.5809 13.0588 8.48916 12.9802 8.37144C12.9015 8.25373 12.8595 8.11534 12.8595 7.97376C12.8595 7.87971 12.8779 7.78656 12.9138 7.69964C12.9498 7.61272 13.0025 7.53373 13.069 7.46719C13.1354 7.40065 13.2144 7.34787 13.3013 7.31186C13.3882 7.27584 13.4813 7.2573 13.5754 7.2573V7.25796ZM28.7526 7.25796C28.8942 7.25796 29.0326 7.29994 29.1503 7.3786C29.268 7.45725 29.3597 7.56905 29.4139 7.69984C29.4681 7.83064 29.4823 7.97456 29.4547 8.11341C29.427 8.25227 29.3589 8.37981 29.2588 8.47992C29.1587 8.58003 29.0311 8.6482 28.8923 8.67582C28.7534 8.70344 28.6095 8.68926 28.4787 8.63508C28.3479 8.5809 28.2361 8.48916 28.1574 8.37144C28.0788 8.25373 28.0368 8.11534 28.0368 7.97376C28.0367 7.87971 28.0552 7.78656 28.0911 7.69964C28.127 7.61272 28.1798 7.53373 28.2462 7.46719C28.3127 7.40065 28.3916 7.34787 28.4785 7.31186C28.5654 7.27584 28.6586 7.2573 28.7526 7.2573V7.25796ZM36.1981 20.2845C36.3397 20.2845 36.4781 20.3265 36.5958 20.4052C36.7135 20.4839 36.8053 20.5957 36.8594 20.7265C36.9136 20.8573 36.9278 21.0012 36.9001 21.1401C36.8725 21.279 36.8043 21.4065 36.7041 21.5066C36.604 21.6067 36.4764 21.6748 36.3375 21.7024C36.1987 21.73 36.0547 21.7158 35.9239 21.6615C35.7931 21.6073 35.6814 21.5155 35.6028 21.3978C35.5242 21.28 35.4822 21.1416 35.4823 21C35.4823 20.906 35.5008 20.8129 35.5368 20.7261C35.5727 20.6392 35.6255 20.5603 35.6919 20.4939C35.7584 20.4274 35.8373 20.3747 35.9242 20.3387C36.011 20.3027 36.1041 20.2842 36.1981 20.2842V20.2845ZM6.12987 20.2845C6.27146 20.2845 6.40986 20.3265 6.52758 20.4052C6.6453 20.4839 6.73705 20.5957 6.79122 20.7265C6.84538 20.8573 6.85954 21.0012 6.83189 21.1401C6.80425 21.279 6.73604 21.4065 6.6359 21.5066C6.53576 21.6067 6.40819 21.6748 6.26931 21.7024C6.13044 21.73 5.9865 21.7158 5.85571 21.6615C5.72492 21.6073 5.61315 21.5155 5.53454 21.3978C5.45592 21.28 5.414 21.1416 5.41406 21C5.41406 20.906 5.43258 20.8129 5.46855 20.7261C5.50452 20.6392 5.55725 20.5603 5.62372 20.4939C5.69019 20.4274 5.7691 20.3747 5.85594 20.3387C5.94279 20.3027 6.03587 20.2842 6.12987 20.2842V20.2845Z" fill="white"/>
</svg>
