<svg width="32" height="32" viewBox="0 0 32 32" fill="none" xmlns="http://www.w3.org/2000/svg">
<g clip-path="url(#clip0)">
<g filter="url(#filter0_d)">
<path d="M16 30C24.2843 30 31 23.2843 31 15C31 6.71573 24.2843 0 16 0C7.71573 0 1 6.71573 1 15C1 23.2843 7.71573 30 16 30Z" fill="black"/>
</g>
<path d="M16 30C24.2843 30 31 23.2843 31 15C31 6.71573 24.2843 0 16 0C7.71573 0 1 6.71573 1 15C1 23.2843 7.71573 30 16 30Z" fill="#00AAE4"/>
<path style="mix-blend-mode:soft-light" d="M16 30C24.2843 30 31 23.2843 31 15C31 6.71573 24.2843 0 16 0C7.71573 0 1 6.71573 1 15C1 23.2843 7.71573 30 16 30Z" fill="url(#paint0_linear)"/>
<path d="M16 29.5C24.0081 29.5 30.5 23.0081 30.5 15C30.5 6.99187 24.0081 0.5 16 0.5C7.99187 0.5 1.5 6.99187 1.5 15C1.5 23.0081 7.99187 29.5 16 29.5Z" stroke="black" stroke-opacity="0.097"/>
<g filter="url(#filter1_d)">
<path d="M21.9601 17.205C21.2701 16.797 20.4931 16.679 19.7231 16.651C19.0771 16.628 18.1131 16.204 18.1131 15.001C18.1131 14.103 18.8231 13.381 19.7231 13.349C20.4931 13.322 21.2711 13.203 21.9611 12.795C23.6741 11.781 24.4311 9.654 23.7541 7.749C23.0771 5.844 21.1631 4.712 19.2141 5.064C17.2651 5.416 15.8441 7.15 15.8441 9.178C15.8441 9.987 16.1261 10.732 16.4841 11.422C16.7861 12.003 16.9381 13.082 15.9041 13.693C15.1341 14.148 14.1741 13.86 13.6941 13.074C13.2901 12.41 12.8011 11.788 12.1161 11.383C10.4031 10.369 8.22612 10.763 6.95412 12.315C6.33694 13.0737 6 14.0219 6 15C6 15.9781 6.33694 16.9263 6.95412 17.685C8.22612 19.238 10.4031 19.631 12.1161 18.617C12.8011 18.213 13.2901 17.591 13.6951 16.927C14.0271 16.382 14.8571 15.687 15.9041 16.307C16.6721 16.762 16.9101 17.757 16.4841 18.578C16.1251 19.268 15.8441 20.013 15.8441 20.823C15.8441 22.85 17.2651 24.584 19.2141 24.936C21.1631 25.288 23.0771 24.156 23.7541 22.251C24.4301 20.346 23.6741 18.219 21.9611 17.205H21.9601Z" fill="black"/>
</g>
<path d="M21.9601 17.205C21.2701 16.797 20.4931 16.679 19.7231 16.651C19.0771 16.628 18.1131 16.204 18.1131 15.001C18.1131 14.103 18.8231 13.381 19.7231 13.349C20.4931 13.322 21.2711 13.203 21.9611 12.795C23.6741 11.781 24.4311 9.654 23.7541 7.749C23.0771 5.844 21.1631 4.712 19.2141 5.064C17.2651 5.416 15.8441 7.15 15.8441 9.178C15.8441 9.987 16.1261 10.732 16.4841 11.422C16.7861 12.003 16.9381 13.082 15.9041 13.693C15.1341 14.148 14.1741 13.86 13.6941 13.074C13.2901 12.41 12.8011 11.788 12.1161 11.383C10.4031 10.369 8.22612 10.763 6.95412 12.315C6.33694 13.0737 6 14.0219 6 15C6 15.9781 6.33694 16.9263 6.95412 17.685C8.22612 19.238 10.4031 19.631 12.1161 18.617C12.8011 18.213 13.2901 17.591 13.6951 16.927C14.0271 16.382 14.8571 15.687 15.9041 16.307C16.6721 16.762 16.9101 17.757 16.4841 18.578C16.1251 19.268 15.8441 20.013 15.8441 20.823C15.8441 22.85 17.2651 24.584 19.2141 24.936C21.1631 25.288 23.0771 24.156 23.7541 22.251C24.4301 20.346 23.6741 18.219 21.9611 17.205H21.9601Z" fill="white"/>
</g>
<defs>
<filter id="filter0_d" x="0" y="-0.5" width="32" height="32" filterUnits="userSpaceOnUse" color-interpolation-filters="sRGB">
<feFlood flood-opacity="0" result="BackgroundImageFix"/>
<feColorMatrix in="SourceAlpha" type="matrix" values="0 0 0 0 0 0 0 0 0 0 0 0 0 0 0 0 0 0 127 0"/>
<feOffset dy="0.5"/>
<feGaussianBlur stdDeviation="0.5"/>
<feColorMatrix type="matrix" values="0 0 0 0 0 0 0 0 0 0 0 0 0 0 0 0 0 0 0.199474 0"/>
<feBlend mode="normal" in2="BackgroundImageFix" result="effect1_dropShadow"/>
<feBlend mode="normal" in="SourceGraphic" in2="effect1_dropShadow" result="shape"/>
</filter>
<filter id="filter1_d" x="5" y="4.50014" width="20.0005" height="21.9997" filterUnits="userSpaceOnUse" color-interpolation-filters="sRGB">
<feFlood flood-opacity="0" result="BackgroundImageFix"/>
<feColorMatrix in="SourceAlpha" type="matrix" values="0 0 0 0 0 0 0 0 0 0 0 0 0 0 0 0 0 0 127 0"/>
<feOffset dy="0.5"/>
<feGaussianBlur stdDeviation="0.5"/>
<feColorMatrix type="matrix" values="0 0 0 0 0 0 0 0 0 0 0 0 0 0 0 0 0 0 0.204257 0"/>
<feBlend mode="normal" in2="BackgroundImageFix" result="effect1_dropShadow"/>
<feBlend mode="normal" in="SourceGraphic" in2="effect1_dropShadow" result="shape"/>
</filter>
<linearGradient id="paint0_linear" x1="16" y1="0" x2="16" y2="30" gradientUnits="userSpaceOnUse">
<stop stop-color="white" stop-opacity="0.5"/>
<stop offset="1" stop-opacity="0.5"/>
</linearGradient>
<clipPath id="clip0">
<rect width="32" height="32" fill="white"/>
</clipPath>
</defs>
</svg>
