<svg id="CIRCLE_OUTLINE_BLACK" data-name="CIRCLE OUTLINE BLACK" xmlns="http://www.w3.org/2000/svg" xmlns:xlink="http://www.w3.org/1999/xlink" viewBox="0 0 512 512"><defs><linearGradient id="Degradado_sin_nombre_42" x1="350.93222" y1="11.88864" x2="163.39771" y2="494.12022" gradientUnits="userSpaceOnUse"><stop offset="0" stop-color="#00ffa3"/><stop offset="1" stop-color="#dc1fff"/></linearGradient></defs><path d="M256,0C114.61513,0,0,114.61511,0,256S114.61513,512,256,512,512,397.38489,512,256,397.38491,0,256,0Zm148.5517,323.39319L357.25954,370.6853a9.81478,9.81478,0,0,1-6.93921,2.86621H110.91793a4.90284,4.90284,0,0,1-3.46961-8.37231l47.29218-47.29212a9.81522,9.81522,0,0,1,6.93921-2.86621h239.4024A4.90286,4.90286,0,0,1,404.55172,323.39319Zm-3.46961-38.69348H161.67971a9.81577,9.81577,0,0,1-6.93921-2.86621l-47.29218-47.29224a4.90284,4.90284,0,0,1,3.46961-8.37231h239.4024a9.81457,9.81457,0,0,1,6.93921,2.86621l47.29218,47.29223A4.90286,4.90286,0,0,1,401.08211,284.69971Zm3.46961-137.87891-47.29218,47.292a9.81478,9.81478,0,0,1-6.93921,2.86621H110.91793a4.90276,4.90276,0,0,1-3.46961-8.37219L154.7405,141.3147a10.08535,10.08535,0,0,1,6.93921-2.86621h239.4024A4.90284,4.90284,0,0,1,404.55172,146.8208Z" style="fill:url(#Degradado_sin_nombre_42)"/></svg>