<svg width="20" height="20" viewBox="0 0 20 20" fill="none" xmlns="http://www.w3.org/2000/svg">
<mask id="path-1-outside-1_9_402" maskUnits="userSpaceOnUse" x="0" y="0" width="20" height="20" fill="black">
<rect fill="white" width="20" height="20"/>
<path fill-rule="evenodd" clip-rule="evenodd" d="M17.155 7.75H17.65C18.3956 7.75 19 8.35441 19 9.1V10.9C19 11.6456 18.3956 12.25 17.65 12.25H17.155C16.9681 12.2493 16.8009 12.3663 16.7374 12.542C16.6798 12.6865 16.6208 12.8273 16.5574 12.9668C16.4785 13.1365 16.5145 13.3374 16.6474 13.469L16.9998 13.8218C17.5245 14.3496 17.5245 15.2021 16.9998 15.7298L15.7281 17.0015C15.2008 17.5263 14.349 17.5273 13.8205 17.0038L13.4672 16.651C13.3353 16.5185 13.1348 16.4825 12.9651 16.561C12.8256 16.6244 12.6847 16.6834 12.5407 16.7383C12.3658 16.8023 12.2497 16.9688 12.25 17.155V17.65C12.25 18.3956 11.6456 19 10.9 19H9.1C8.35441 19 7.75 18.3956 7.75 17.65V17.155C7.75034 16.9675 7.63238 16.8002 7.4557 16.7374C7.31125 16.6798 7.1704 16.6208 7.0309 16.5574C6.86119 16.4791 6.66066 16.515 6.5287 16.6474L6.1759 16.9997C5.64811 17.5244 4.79569 17.5244 4.2679 16.9997L2.9962 15.728C2.47184 15.2003 2.47184 14.3482 2.9962 13.8205L3.349 13.4672C3.48186 13.3356 3.51786 13.1347 3.439 12.965C3.37555 12.8255 3.3166 12.6847 3.2617 12.5407C3.19774 12.3658 3.03119 12.2497 2.845 12.25H2.35C1.60441 12.25 1 11.6456 1 10.9V9.1C1 8.35441 1.60441 7.75 2.35 7.75H2.845C3.03231 7.75191 3.20044 7.63564 3.26485 7.45975C3.3202 7.3153 3.37915 7.17445 3.4426 7.03495C3.52146 6.8653 3.48546 6.66443 3.3526 6.53275L3.00025 6.17995C2.47555 5.65215 2.47555 4.79974 3.00025 4.27195L4.27195 2.9962C4.79969 2.47184 5.65176 2.47184 6.1795 2.9962L6.53275 3.349C6.66466 3.48152 6.86524 3.51747 7.03495 3.439C7.17445 3.37555 7.3153 3.3166 7.4593 3.2617C7.63418 3.19774 7.75034 3.03119 7.75 2.845V2.35C7.75 1.60441 8.35441 1 9.1 1H10.9C11.6456 1 12.25 1.60441 12.25 2.35V2.845C12.2493 3.03192 12.3663 3.19909 12.542 3.2626C12.6865 3.3202 12.8274 3.37915 12.9669 3.4426C13.1366 3.5209 13.3371 3.48496 13.4691 3.3526L13.8218 3.00025C14.3496 2.47555 15.2021 2.47555 15.7299 3.00025L17.0015 4.27195C17.5266 4.79907 17.5275 5.65114 17.0038 6.1795L16.651 6.53275C16.5181 6.66443 16.4821 6.8653 16.561 7.03495C16.6245 7.17445 16.6834 7.3153 16.7383 7.4593C16.8023 7.63418 16.9688 7.75034 17.155 7.75ZM10 15C12.7614 15 15 12.7614 15 10C15 7.23858 12.7614 5 10 5C7.23858 5 5 7.23858 5 10C5 12.7614 7.23858 15 10 15Z"/>
</mask>
<path fill-rule="evenodd" clip-rule="evenodd" d="M17.155 7.75H17.65C18.3956 7.75 19 8.35441 19 9.1V10.9C19 11.6456 18.3956 12.25 17.65 12.25H17.155C16.9681 12.2493 16.8009 12.3663 16.7374 12.542C16.6798 12.6865 16.6208 12.8273 16.5574 12.9668C16.4785 13.1365 16.5145 13.3374 16.6474 13.469L16.9998 13.8218C17.5245 14.3496 17.5245 15.2021 16.9998 15.7298L15.7281 17.0015C15.2008 17.5263 14.349 17.5273 13.8205 17.0038L13.4672 16.651C13.3353 16.5185 13.1348 16.4825 12.9651 16.561C12.8256 16.6244 12.6847 16.6834 12.5407 16.7383C12.3658 16.8023 12.2497 16.9688 12.25 17.155V17.65C12.25 18.3956 11.6456 19 10.9 19H9.1C8.35441 19 7.75 18.3956 7.75 17.65V17.155C7.75034 16.9675 7.63238 16.8002 7.4557 16.7374C7.31125 16.6798 7.1704 16.6208 7.0309 16.5574C6.86119 16.4791 6.66066 16.515 6.5287 16.6474L6.1759 16.9997C5.64811 17.5244 4.79569 17.5244 4.2679 16.9997L2.9962 15.728C2.47184 15.2003 2.47184 14.3482 2.9962 13.8205L3.349 13.4672C3.48186 13.3356 3.51786 13.1347 3.439 12.965C3.37555 12.8255 3.3166 12.6847 3.2617 12.5407C3.19774 12.3658 3.03119 12.2497 2.845 12.25H2.35C1.60441 12.25 1 11.6456 1 10.9V9.1C1 8.35441 1.60441 7.75 2.35 7.75H2.845C3.03231 7.75191 3.20044 7.63564 3.26485 7.45975C3.3202 7.3153 3.37915 7.17445 3.4426 7.03495C3.52146 6.8653 3.48546 6.66443 3.3526 6.53275L3.00025 6.17995C2.47555 5.65215 2.47555 4.79974 3.00025 4.27195L4.27195 2.9962C4.79969 2.47184 5.65176 2.47184 6.1795 2.9962L6.53275 3.349C6.66466 3.48152 6.86524 3.51747 7.03495 3.439C7.17445 3.37555 7.3153 3.3166 7.4593 3.2617C7.63418 3.19774 7.75034 3.03119 7.75 2.845V2.35C7.75 1.60441 8.35441 1 9.1 1H10.9C11.6456 1 12.25 1.60441 12.25 2.35V2.845C12.2493 3.03192 12.3663 3.19909 12.542 3.2626C12.6865 3.3202 12.8274 3.37915 12.9669 3.4426C13.1366 3.5209 13.3371 3.48496 13.4691 3.3526L13.8218 3.00025C14.3496 2.47555 15.2021 2.47555 15.7299 3.00025L17.0015 4.27195C17.5266 4.79907 17.5275 5.65114 17.0038 6.1795L16.651 6.53275C16.5181 6.66443 16.4821 6.8653 16.561 7.03495C16.6245 7.17445 16.6834 7.3153 16.7383 7.4593C16.8023 7.63418 16.9688 7.75034 17.155 7.75ZM10 15C12.7614 15 15 12.7614 15 10C15 7.23858 12.7614 5 10 5C7.23858 5 5 7.23858 5 10C5 12.7614 7.23858 15 10 15Z" fill="#FF7300"/>
<path d="M17.155 7.75V7.55L17.1546 7.55L17.155 7.75ZM17.155 12.25L17.1543 12.45H17.155V12.25ZM16.7374 12.542L16.9233 12.6162L16.9255 12.61L16.7374 12.542ZM16.5574 12.9668L16.7388 13.0512L16.7395 13.0497L16.5574 12.9668ZM16.6474 13.469L16.7889 13.3277L16.7882 13.327L16.6474 13.469ZM16.9998 13.8218L17.1416 13.6808L17.1413 13.6805L16.9998 13.8218ZM16.9998 15.7298L17.1412 15.8713L17.1416 15.8709L16.9998 15.7298ZM15.7281 17.0015L15.8691 17.1433L15.8695 17.143L15.7281 17.0015ZM13.8205 17.0038L13.6792 17.1453L13.6797 17.1459L13.8205 17.0038ZM13.4672 16.651L13.3255 16.7921L13.3259 16.7925L13.4672 16.651ZM12.9651 16.561L13.0479 16.7431L13.049 16.7425L12.9651 16.561ZM12.5407 16.7383L12.6094 16.9261L12.6119 16.9252L12.5407 16.7383ZM12.25 17.155H12.45L12.45 17.1546L12.25 17.155ZM7.75 17.155L7.55 17.1546V17.155H7.75ZM7.4557 16.7374L7.38157 16.9233L7.38874 16.9259L7.4557 16.7374ZM7.0309 16.5574L6.94711 16.739L6.9481 16.7394L7.0309 16.5574ZM6.5287 16.6474L6.67003 16.7889L6.67033 16.7886L6.5287 16.6474ZM6.1759 16.9997L6.31691 17.1416L6.31723 17.1413L6.1759 16.9997ZM4.2679 16.9997L4.12648 17.1412L4.12689 17.1416L4.2679 16.9997ZM2.9962 15.728L2.85433 15.869L2.85478 15.8695L2.9962 15.728ZM2.9962 13.8205L2.85469 13.6792L2.85433 13.6795L2.9962 13.8205ZM3.349 13.4672L3.20821 13.3252L3.20749 13.3259L3.349 13.4672ZM3.439 12.965L3.25694 13.0479L3.25764 13.0494L3.439 12.965ZM3.2617 12.5407L3.07385 12.6094L3.07482 12.6119L3.2617 12.5407ZM2.845 12.25V12.45L2.84536 12.45L2.845 12.25ZM2.845 7.75L2.84704 7.55H2.845V7.75ZM3.26485 7.45975L3.07807 7.38818L3.07704 7.39098L3.26485 7.45975ZM3.4426 7.03495L3.26123 6.95064L3.26055 6.95214L3.4426 7.03495ZM3.3526 6.53275L3.21109 6.67408L3.21181 6.6748L3.3526 6.53275ZM3.00025 6.17995L2.85841 6.32095L2.85874 6.32128L3.00025 6.17995ZM3.00025 4.27195L2.8586 4.13075L2.85841 4.13094L3.00025 4.27195ZM4.27195 2.9962L4.13098 2.85432L4.1303 2.855L4.27195 2.9962ZM6.1795 2.9962L6.32083 2.85469L6.32047 2.85433L6.1795 2.9962ZM6.53275 3.349L6.6745 3.20791L6.67408 3.20749L6.53275 3.349ZM7.03495 3.439L6.95214 3.25694L6.95101 3.25747L7.03495 3.439ZM7.4593 3.2617L7.3906 3.07385L7.38805 3.07482L7.4593 3.2617ZM7.75 2.845H7.55L7.55 2.84536L7.75 2.845ZM12.25 2.845L12.45 2.84572V2.845H12.25ZM12.542 3.2626L12.6162 3.07673L12.61 3.0745L12.542 3.2626ZM12.9669 3.4426L13.0506 3.26099L13.0497 3.26055L12.9669 3.4426ZM13.4691 3.3526L13.3277 3.21109L13.3274 3.21139L13.4691 3.3526ZM13.8218 3.00025L13.6808 2.85841L13.6805 2.85874L13.8218 3.00025ZM15.7299 3.00025L15.8713 2.85883L15.8709 2.85841L15.7299 3.00025ZM17.0015 4.27195L17.1432 4.13081L17.143 4.13053L17.0015 4.27195ZM17.0038 6.1795L17.1453 6.32083L17.1458 6.3203L17.0038 6.1795ZM16.651 6.53275L16.7918 6.6748L16.7925 6.67408L16.651 6.53275ZM16.561 7.03495L16.7431 6.95214L16.7424 6.95064L16.561 7.03495ZM16.7383 7.4593L16.9262 7.3906L16.9252 7.38805L16.7383 7.4593ZM17.65 7.55H17.155V7.95H17.65V7.55ZM19.2 9.1C19.2 8.24395 18.5061 7.55 17.65 7.55V7.95C18.2851 7.95 18.8 8.46486 18.8 9.1H19.2ZM19.2 10.9V9.1H18.8V10.9H19.2ZM17.65 12.45C18.5061 12.45 19.2 11.756 19.2 10.9H18.8C18.8 11.5351 18.2851 12.05 17.65 12.05V12.45ZM17.155 12.45H17.65V12.05H17.155V12.45ZM16.9255 12.61C16.9603 12.5137 17.0519 12.4496 17.1543 12.45L17.1557 12.05C16.8843 12.049 16.6415 12.2188 16.5493 12.4741L16.9255 12.61ZM16.7395 13.0497C16.8046 12.9065 16.8648 12.7626 16.9232 12.6161L16.5516 12.468C16.4948 12.6104 16.4371 12.7482 16.3753 12.884L16.7395 13.0497ZM16.7882 13.327C16.7152 13.2547 16.6954 13.1444 16.7388 13.0512L16.376 12.8825C16.2616 13.1286 16.3139 13.4201 16.5066 13.6111L16.7882 13.327ZM17.1413 13.6805L16.7889 13.3277L16.5059 13.6104L16.8582 13.9632L17.1413 13.6805ZM17.1416 15.8709C17.7438 15.2651 17.7438 14.2866 17.1416 13.6808L16.8579 13.9629C17.3051 14.4126 17.3051 15.1391 16.8579 15.5888L17.1416 15.8709ZM15.8695 17.143L17.1412 15.8713L16.8583 15.5884L15.5866 16.8601L15.8695 17.143ZM13.6797 17.1459C14.2863 17.7468 15.264 17.7456 15.8691 17.1433L15.587 16.8598C15.1376 17.307 14.4116 17.3079 13.9613 16.8617L13.6797 17.1459ZM13.3259 16.7925L13.6792 17.1453L13.9618 16.8623L13.6086 16.5095L13.3259 16.7925ZM13.049 16.7425C13.1424 16.6993 13.2529 16.7191 13.3255 16.7921L13.609 16.5099C13.4178 16.3178 13.1271 16.2657 12.8811 16.3795L13.049 16.7425ZM12.6119 16.9252C12.7599 16.8688 12.9046 16.8082 13.0479 16.743L12.8822 16.3789C12.7465 16.4407 12.6095 16.498 12.4695 16.5514L12.6119 16.9252ZM12.45 17.1546C12.4498 17.0525 12.5135 16.9612 12.6094 16.9261L12.472 16.5505C12.2181 16.6433 12.0495 16.8851 12.05 17.1554L12.45 17.1546ZM12.45 17.65V17.155H12.05V17.65H12.45ZM10.9 19.2C11.7561 19.2 12.45 18.506 12.45 17.65H12.05C12.05 18.2851 11.5351 18.8 10.9 18.8V19.2ZM9.1 19.2H10.9V18.8H9.1V19.2ZM7.55 17.65C7.55 18.506 8.24395 19.2 9.1 19.2V18.8C8.46486 18.8 7.95 18.2851 7.95 17.65H7.55ZM7.55 17.155V17.65H7.95V17.155H7.55ZM7.38874 16.9259C7.48558 16.9603 7.55018 17.052 7.55 17.1546L7.95 17.1554C7.95049 16.8831 7.77918 16.6401 7.52266 16.5489L7.38874 16.9259ZM6.9481 16.7394C7.09125 16.8046 7.23515 16.8648 7.38162 16.9232L7.52978 16.5516C7.38735 16.4948 7.24955 16.4371 7.11371 16.3753L6.9481 16.7394ZM6.67033 16.7886C6.74307 16.7157 6.85359 16.6958 6.94711 16.739L7.11469 16.3758C6.86879 16.2623 6.57825 16.3144 6.38707 16.5062L6.67033 16.7886ZM6.31723 17.1413L6.67003 16.7889L6.38737 16.5059L6.03457 16.8582L6.31723 17.1413ZM4.12689 17.1416C4.7327 17.7438 5.7111 17.7438 6.31691 17.1416L6.0349 16.8579C5.58511 17.3051 4.85869 17.3051 4.40891 16.8579L4.12689 17.1416ZM2.85478 15.8695L4.12648 17.1412L4.40932 16.8583L3.13762 15.5866L2.85478 15.8695ZM2.85433 13.6795C2.25246 14.2853 2.25246 15.2633 2.85433 15.869L3.13807 15.5871C2.69121 15.1373 2.69121 14.4112 3.13807 13.9615L2.85433 13.6795ZM3.20749 13.3259L2.85469 13.6792L3.13771 13.9618L3.49051 13.6086L3.20749 13.3259ZM3.25764 13.0494C3.30096 13.1426 3.28118 13.2529 3.20821 13.3252L3.48979 13.6093C3.68255 13.4183 3.73476 13.1268 3.62036 12.8807L3.25764 13.0494ZM3.07482 12.6119C3.13124 12.7599 3.19181 12.9046 3.25695 13.0479L3.62105 12.8822C3.55929 12.7465 3.50196 12.6095 3.44858 12.4694L3.07482 12.6119ZM2.84536 12.45C2.94749 12.4498 3.03881 12.5135 3.07387 12.6094L3.44953 12.472C3.35668 12.2181 3.11489 12.0495 2.84464 12.05L2.84536 12.45ZM2.35 12.45H2.845V12.05H2.35V12.45ZM0.8 10.9C0.8 11.756 1.49395 12.45 2.35 12.45V12.05C1.71486 12.05 1.2 11.5351 1.2 10.9H0.8ZM0.8 9.1V10.9H1.2V9.1H0.8ZM2.35 7.55C1.49395 7.55 0.8 8.24395 0.8 9.1H1.2C1.2 8.46486 1.71486 7.95 2.35 7.95V7.55ZM2.845 7.55H2.35V7.95H2.845V7.55ZM3.07704 7.39098C3.04174 7.48739 2.94963 7.55106 2.84704 7.55001L2.84296 7.94999C3.11499 7.95277 3.35914 7.7839 3.45266 7.52852L3.07704 7.39098ZM3.26055 6.95214C3.19541 7.09536 3.13489 7.23996 3.07809 7.38819L3.45161 7.53131C3.50551 7.39064 3.56289 7.25353 3.62465 7.11775L3.26055 6.95214ZM3.21181 6.6748C3.28478 6.74712 3.30456 6.85744 3.26124 6.95064L3.62396 7.11926C3.73836 6.87315 3.68615 6.58174 3.49339 6.3907L3.21181 6.6748ZM2.85874 6.32128L3.21109 6.67408L3.49411 6.39142L3.14176 6.03862L2.85874 6.32128ZM2.85841 4.13094C2.25616 4.73675 2.25616 5.71515 2.85841 6.32095L3.14209 6.03894C2.69494 5.58916 2.69494 4.86274 3.14209 4.41295L2.85841 4.13094ZM4.1303 2.855L2.8586 4.13075L3.1419 4.41315L4.4136 3.1374L4.1303 2.855ZM6.32047 2.85433C5.71473 2.25246 4.73672 2.25246 4.13098 2.85433L4.41292 3.13807C4.86265 2.69121 5.5888 2.69121 6.03853 3.13807L6.32047 2.85433ZM6.67408 3.20749L6.32083 2.85469L6.03817 3.13771L6.39142 3.49051L6.67408 3.20749ZM6.95101 3.25747C6.85757 3.30067 6.74714 3.28089 6.6745 3.20791L6.391 3.49009C6.58217 3.68216 6.87292 3.73426 7.11889 3.62053L6.95101 3.25747ZM7.38805 3.07482C7.24006 3.13124 7.09536 3.19181 6.95215 3.25695L7.11775 3.62105C7.25354 3.55929 7.39054 3.50196 7.53055 3.44858L7.38805 3.07482ZM7.55 2.84536C7.55019 2.94748 7.48647 3.03881 7.39061 3.07387L7.52799 3.44953C7.78189 3.35668 7.95049 3.11489 7.95 2.84464L7.55 2.84536ZM7.55 2.35V2.845H7.95V2.35H7.55ZM9.1 0.8C8.24395 0.8 7.55 1.49395 7.55 2.35H7.95C7.95 1.71486 8.46486 1.2 9.1 1.2V0.8ZM10.9 0.8H9.1V1.2H10.9V0.8ZM12.45 2.35C12.45 1.49395 11.7561 0.8 10.9 0.8V1.2C11.5351 1.2 12.05 1.71486 12.05 2.35H12.45ZM12.45 2.845V2.35H12.05V2.845H12.45ZM12.61 3.0745C12.5137 3.0397 12.4496 2.9481 12.45 2.84572L12.05 2.84428C12.049 3.11574 12.2188 3.35848 12.4741 3.4507L12.61 3.0745ZM13.0497 3.26055C12.9065 3.19543 12.7626 3.13523 12.6161 3.07682L12.468 3.44837C12.6104 3.50517 12.7482 3.56287 12.884 3.62465L13.0497 3.26055ZM13.3274 3.21139C13.2547 3.28434 13.1442 3.30415 13.0506 3.261L12.8831 3.6242C13.129 3.73765 13.4195 3.68557 13.6107 3.49381L13.3274 3.21139ZM13.6805 2.85874L13.3277 3.21109L13.6104 3.49411L13.9632 3.14176L13.6805 2.85874ZM15.8709 2.85841C15.2651 2.25616 14.2866 2.25616 13.6808 2.85841L13.9629 3.14209C14.4126 2.69494 15.1391 2.69494 15.5888 3.14209L15.8709 2.85841ZM17.143 4.13053L15.8713 2.85883L15.5884 3.14167L16.8601 4.41337L17.143 4.13053ZM17.1458 6.3203C17.747 5.71386 17.7459 4.73584 17.1432 4.13081L16.8598 4.41309C17.3073 4.86229 17.3081 5.58843 16.8618 6.0387L17.1458 6.3203ZM16.7925 6.67408L17.1453 6.32083L16.8623 6.03817L16.5095 6.39142L16.7925 6.67408ZM16.7424 6.95064C16.699 6.85744 16.7188 6.74712 16.7918 6.6748L16.5102 6.3907C16.3175 6.58174 16.2652 6.87315 16.3796 7.11926L16.7424 6.95064ZM16.9252 7.38805C16.8688 7.24006 16.8082 7.09536 16.7431 6.95214L16.3789 7.11775C16.4407 7.25354 16.498 7.39054 16.5514 7.53055L16.9252 7.38805ZM17.1546 7.55C17.0525 7.55018 16.9612 7.48647 16.9261 7.39061L16.5505 7.52799C16.6433 7.78189 16.8851 7.95049 17.1554 7.95L17.1546 7.55ZM14.8 10C14.8 12.651 12.651 14.8 10 14.8V15.2C12.8719 15.2 15.2 12.8719 15.2 10H14.8ZM10 5.2C12.651 5.2 14.8 7.34903 14.8 10H15.2C15.2 7.12812 12.8719 4.8 10 4.8V5.2ZM5.2 10C5.2 7.34903 7.34903 5.2 10 5.2V4.8C7.12812 4.8 4.8 7.12812 4.8 10H5.2ZM10 14.8C7.34903 14.8 5.2 12.651 5.2 10H4.8C4.8 12.8719 7.12812 15.2 10 15.2V14.8Z" fill="#FF7300" mask="url(#path-1-outside-1_9_402)"/>
</svg>
