<svg width="170" height="48" viewBox="0 0 170 48" fill="none" xmlns="http://www.w3.org/2000/svg">
<path d="M36.8201 19.8134H44.8987C46.3729 19.8134 47.4343 19.9903 48.1419 20.3441C48.8495 20.6979 49.4982 21.2286 49.9699 21.8772C50.4416 22.5259 50.6775 23.3514 50.6775 24.2949C50.6775 26.2409 49.6161 27.4792 47.5522 28.1278C48.7316 28.4227 49.6751 28.9534 50.2647 29.72C50.8544 30.5455 51.1493 31.43 51.1493 32.3735C51.1493 33.6708 50.6775 34.7912 49.6751 35.7347C48.6726 36.6782 47.0805 37.1499 44.8987 37.1499H36.8201V19.8134ZM40.8889 22.8797V26.7126H43.9552C45.0756 26.7126 45.7832 26.4767 46.078 26.064C46.3729 25.5922 46.4908 25.1794 46.4908 24.7667C46.4908 24.3539 46.3729 23.9411 46.137 23.6463C45.9011 23.3514 45.6063 23.1156 45.3704 23.0566C45.0756 22.9976 44.4859 22.9387 43.6603 22.9387H40.8889V22.8797ZM40.8889 29.7789V33.9656H44.0141C45.0756 33.9656 45.8422 33.7887 46.2549 33.4349C46.6677 33.0811 46.9036 32.5504 46.9036 31.8428C46.9036 31.3121 46.6677 30.7814 46.2549 30.3686C45.8422 29.9558 45.1345 29.7789 44.1321 29.7789H40.8889Z" fill="#F18933"/>
<path d="M57.8716 19.8134V37.2089H53.8029V19.8134H57.8716Z" fill="#F18933"/>
<path d="M72.3778 19.8134V23.2335H68.0731V37.1499H63.9454V23.2335H59.6407V19.8134H72.3778Z" fill="#F18933"/>
<path d="M81.8124 37.2089L77.5078 23.0566V37.2089H74.0876V19.8134H80.3972L83.4635 30.1917L86.6478 19.8134H93.0163V37.2089H88.9476V23.0566L84.5839 37.2089H81.8124Z" fill="white"/>
<path d="M108.938 23.1156H100.682V26.6536H107.169V29.8969H100.682V33.6708H108.938V37.0909H96.5546V19.8134H108.938V23.1156Z" fill="white"/>
<path d="M115.542 33.7298H122.441V37.1499H111.414V19.8134H115.542V33.7298Z" fill="white"/>
<path d="M136.948 23.1156H128.692V26.6536H135.179V29.8969H128.692V33.6708H136.948V37.0909H124.564V19.8134H136.948V23.1156Z" fill="white"/>
<path d="M153.4 26.2996L149.154 26.5945C149.095 24.1178 148.151 22.9384 146.264 22.9384C144.142 22.9384 143.08 24.8254 143.08 28.5994C143.08 30.7812 143.375 32.2554 143.965 33.022C144.554 33.7885 145.38 34.2013 146.382 34.2013C148.092 34.2013 149.095 33.0809 149.449 30.8991L153.4 31.135C153.164 33.1989 152.397 34.791 151.1 35.8524C149.803 36.9138 148.21 37.5035 146.323 37.5035C144.024 37.5035 142.137 36.7369 140.721 35.1448C139.306 33.5527 138.54 31.3708 138.54 28.5404C138.54 25.9458 139.247 23.764 140.604 22.1129C142.019 20.4618 143.906 19.5773 146.323 19.5773C150.51 19.5773 152.869 21.8181 153.4 26.2996Z" fill="white"/>
<path d="M169.144 19.813V37.2085H165.134V30.0144H159.709V37.2085H155.699V19.813H159.709V26.5943H165.134V19.813H169.144Z" fill="white"/>
<path d="M27.7979 11.8525L31.1001 0.235872C31.1001 0.235872 29.2131 0.117936 27.562 0.0589681C26.7365 0.0589681 26.0289 0 25.5571 0C24.5547 0 23.5522 0 22.4908 0C21.8421 0 20.8987 0.0589681 20.3679 0.0589681C19.6603 0.117936 19.2476 0.117936 19.2476 0.117936L20.7218 11.7936L27.7979 11.8525Z" fill="white"/>
<path d="M13.056 13.2091L5.4491 5.54331C5.4491 5.54331 5.74394 5.13053 6.45155 4.54085C7.1002 4.01014 7.98471 3.24356 9.34098 2.53595C9.81272 2.24111 10.3434 2.00523 10.9331 1.76936C11.051 1.7104 11.169 1.65143 11.2279 1.65143C11.5228 1.53349 11.8176 1.41556 12.1125 1.29762C12.5842 1.12072 13.056 1.00278 13.4687 0.884845C14.6481 0.590005 15.4736 0.47207 15.5916 0.47207C16.2992 0.354135 16.9478 0.295166 16.9478 0.295166L18.481 11.7939C18.481 11.7939 16.9478 11.9118 15.6505 12.2656C14.2943 12.6195 13.056 13.2091 13.056 13.2091Z" fill="white"/>
<path d="M10.9918 14.3292L4.03355 7.37097C4.03355 7.37097 2.55935 9.37588 1.5569 12.5601C0.672378 15.2137 0.554443 16.3341 0.554443 16.3341L7.21782 19.1646C7.21782 19.1646 7.68956 17.8083 8.69201 16.511C9.93034 14.9778 10.9918 14.3292 10.9918 14.3292Z" fill="white"/>
<path d="M6.5695 21.2873L0.25994 18.6338C0.25994 18.6338 -0.0938673 21.5232 0.0240685 24.9434C0.0830364 25.8868 0.200972 27.9507 0.200972 27.9507L5.80292 27.361C5.80292 27.361 5.80292 25.8279 6.03879 23.9999C6.27467 22.0539 6.5695 21.2873 6.5695 21.2873Z" fill="white"/>
<path d="M5.80298 29.7198C5.80298 29.7198 5.80298 30.3685 5.92091 31.312C6.15678 34.0835 6.74646 36.737 6.74646 36.737L2.4418 38.1523C2.4418 38.1523 1.9111 36.737 1.32142 34.6732C0.672769 32.4913 0.37793 30.2506 0.37793 30.2506L5.80298 29.7198Z" fill="white"/>
<path d="M29.5077 34.4964L12.7019 27.4202C12.7019 25.7101 12.8198 24.118 13.3505 22.5259C13.5274 22.0541 13.5864 21.8183 13.8812 21.4055C14.0581 21.0517 14.4709 20.5799 14.7658 20.3441C15.4144 19.6954 16.122 19.3416 17.0065 19.1057C17.5962 18.9288 18.1859 18.8109 18.7166 18.7519C19.6011 18.634 21.3112 18.693 21.3112 18.693H23.3161L24.2596 26.3588L19.3653 24.2949L19.896 28.2458L28.4463 31.8428L26.3824 15.2728C26.3235 15.2728 21.1343 15.2728 21.1343 15.2728C21.1343 15.2728 18.6576 15.2728 17.1834 15.5087C17.0065 15.5087 16.8296 15.5677 16.5938 15.6266C15.7682 15.7446 14.5889 16.0984 13.4685 16.806C12.8788 17.1598 12.2891 17.6905 11.7584 18.2802C11.6405 18.3981 11.5815 18.4571 11.5225 18.575C10.4611 19.9903 9.87143 21.7003 9.51762 23.5283C9.28175 24.7667 9.22278 26.005 9.22278 27.2433C9.22278 30.4865 9.51762 33.258 9.81246 34.9091C9.93039 35.6167 10.2252 36.8551 10.5201 37.4448C10.9918 38.5062 11.5225 39.0369 11.8763 39.3317C12.3481 39.7445 13.4095 40.4521 13.9992 40.688C15.5323 41.3956 20.7805 43.6364 20.7805 43.6364C20.7805 43.6364 31.0409 47.941 31.0409 48L29.5077 34.4964ZM13.2916 35.2629C13.2326 34.8502 13.0557 33.5529 13.0557 33.5529L12.8198 31.2531L26.3824 36.973L27.09 42.516L16.24 37.9755C16.24 37.9755 15.1785 37.5627 14.8247 37.3858C14.6478 37.2678 14.412 37.1499 14.1171 36.914C13.8812 36.7371 13.7043 36.4423 13.5864 36.2654C13.4685 35.9706 13.3505 35.6757 13.2916 35.2629Z" fill="#F18933"/>
<path d="M23.2574 39.5674L25.6161 40.5698L25.3212 37.7983L22.9036 36.8549L23.2574 39.5674Z" fill="#F18933"/>
<path d="M18.9527 37.7396L21.3704 38.801L21.0166 36.0296L18.5989 35.0271L18.9527 37.7396Z" fill="#F18933"/>
<path d="M16.653 34.2014L14.2354 33.199L14.6481 35.9115L17.0068 36.9729L16.653 34.2014Z" fill="#F18933"/>
</svg>
