<svg width="27" height="23" viewBox="0 0 27 23" fill="none" xmlns="http://www.w3.org/2000/svg">
<path fill-rule="evenodd" clip-rule="evenodd" d="M3.38859 16.3517C3.55767 16.3028 3.73714 16.3028 3.90622 16.3517C4.82253 16.6165 5.99302 16.7812 7.28393 16.7812C8.57484 16.7812 9.74532 16.6165 10.6616 16.3517C10.8307 16.3028 11.0102 16.3028 11.1793 16.3517C11.9772 16.5823 12.7001 16.8983 13.2448 17.3084C13.7766 17.7089 14.2761 18.3114 14.2761 19.1119C14.2761 19.7868 13.9169 20.3251 13.4948 20.7089C13.073 21.0925 12.5146 21.3952 11.9036 21.6302C10.6754 22.1025 9.04183 22.375 7.28393 22.375C5.52603 22.375 3.89245 22.1025 2.66427 21.6302C2.05329 21.3952 1.49488 21.0925 1.07304 20.7089C0.650929 20.3251 0.291748 19.7868 0.291748 19.1119C0.291748 18.3114 0.791252 17.7089 1.32309 17.3084C1.86776 16.8983 2.59062 16.5823 3.38859 16.3517ZM2.1573 19.1128C2.16375 19.1356 2.1946 19.2086 2.32747 19.3294C2.51893 19.5035 2.84797 19.7031 3.33361 19.8899C4.29869 20.261 5.69505 20.5104 7.28393 20.5104C8.87281 20.5104 10.2692 20.261 11.2342 19.8899C11.7199 19.7031 12.0489 19.5035 12.2404 19.3294C12.3733 19.2086 12.4041 19.1356 12.4106 19.1128C12.4032 19.0862 12.3594 18.9758 12.1232 18.798C11.8615 18.6009 11.4547 18.3964 10.906 18.2179C9.85156 18.4918 8.60587 18.6458 7.28393 18.6458C5.96199 18.6458 4.7163 18.4918 3.66189 18.2179C3.1132 18.3964 2.70636 18.6009 2.44469 18.798C2.20848 18.9758 2.16465 19.0862 2.1573 19.1128Z" fill="#F18933"/>
<path d="M2.32747 19.3294C2.1946 19.2086 2.16375 19.1356 2.1573 19.1128C2.16465 19.0862 2.20848 18.9758 2.44469 18.798C2.70636 18.6009 3.1132 18.3964 3.66189 18.2179C4.7163 18.4918 5.96199 18.6458 7.28393 18.6458C8.60587 18.6458 9.85156 18.4918 10.906 18.2179C11.4547 18.3964 11.8615 18.6009 12.1232 18.798C12.3594 18.9758 12.4032 19.0862 12.4106 19.1128C12.4041 19.1356 12.3733 19.2086 12.2404 19.3294C12.0489 19.5035 11.7199 19.7031 11.2342 19.8899C10.2692 20.261 8.87281 20.5104 7.28393 20.5104C5.69505 20.5104 4.29869 20.261 3.33361 19.8899C2.84797 19.7031 2.51893 19.5035 2.32747 19.3294Z" fill="#F18933"/>
<path fill-rule="evenodd" clip-rule="evenodd" d="M3.38859 12.1565C3.55767 12.1076 3.73714 12.1076 3.90622 12.1565C4.82253 12.4212 5.99302 12.586 7.28393 12.586C8.57484 12.586 9.74532 12.4212 10.6616 12.1565C10.8307 12.1076 11.0102 12.1076 11.1793 12.1565C11.9772 12.387 12.7001 12.703 13.2448 13.1132C13.7766 13.5137 14.2761 14.1162 14.2761 14.9167C14.2761 15.5915 13.9169 16.1298 13.4948 16.5137C13.073 16.8973 12.5146 17.1999 11.9036 17.4349C10.6754 17.9073 9.04183 18.1797 7.28393 18.1797C5.52603 18.1797 3.89245 17.9073 2.66427 17.4349C2.05329 17.1999 1.49488 16.8973 1.07304 16.5137C0.650929 16.1298 0.291748 15.5915 0.291748 14.9167C0.291748 14.1162 0.791252 13.5137 1.32309 13.1132C1.86776 12.703 2.59062 12.387 3.38859 12.1565ZM2.1573 14.9175C2.16375 14.9403 2.1946 15.0133 2.32747 15.1342C2.51893 15.3082 2.84797 15.5078 3.33361 15.6946C4.29869 16.0658 5.69505 16.3151 7.28393 16.3151C8.87281 16.3151 10.2692 16.0658 11.2342 15.6946C11.7199 15.5078 12.0489 15.3082 12.2404 15.1342C12.3733 15.0133 12.4041 14.9403 12.4106 14.9175C12.4032 14.8909 12.3594 14.7806 12.1232 14.6027C11.8615 14.4057 11.4547 14.2011 10.906 14.0227C9.85156 14.2966 8.60587 14.4505 7.28393 14.4505C5.96199 14.4505 4.7163 14.2966 3.66189 14.0227C3.1132 14.2011 2.70636 14.4057 2.44469 14.6027C2.20848 14.7806 2.16465 14.8909 2.1573 14.9175Z" fill="white"/>
<path d="M2.32747 15.1342C2.1946 15.0133 2.16375 14.9403 2.1573 14.9175C2.16465 14.8909 2.20848 14.7806 2.44469 14.6027C2.70636 14.4057 3.1132 14.2011 3.66189 14.0227C4.7163 14.2966 5.96199 14.4505 7.28393 14.4505C8.60587 14.4505 9.85156 14.2966 10.906 14.0227C11.4547 14.2011 11.8615 14.4057 12.1232 14.6027C12.3594 14.7806 12.4032 14.8909 12.4106 14.9175C12.4041 14.9403 12.3733 15.0133 12.2404 15.1342C12.0489 15.3082 11.7199 15.5078 11.2342 15.6946C10.2692 16.0658 8.87281 16.3151 7.28393 16.3151C5.69505 16.3151 4.29869 16.0658 3.33361 15.6946C2.84797 15.5078 2.51893 15.3082 2.32747 15.1342Z" fill="white"/>
<path fill-rule="evenodd" clip-rule="evenodd" d="M3.38859 8.42727C3.55767 8.37841 3.73714 8.37841 3.90622 8.42727C4.82253 8.69206 5.99302 8.85677 7.28393 8.85677C8.57484 8.85677 9.74532 8.69206 10.6616 8.42727C10.8307 8.37841 11.0102 8.37841 11.1793 8.42727C11.9772 8.65786 12.7001 8.97386 13.2448 9.384C13.7766 9.78447 14.2761 10.387 14.2761 11.1875C14.2761 11.8623 13.9169 12.4006 13.4948 12.7845C13.073 13.1681 12.5146 13.4707 11.9036 13.7057C10.6754 14.1781 9.04183 14.4505 7.28393 14.4505C5.52603 14.4505 3.89245 14.1781 2.66427 13.7057C2.05329 13.4707 1.49488 13.1681 1.07304 12.7845C0.650929 12.4006 0.291748 11.8623 0.291748 11.1875C0.291748 10.387 0.791252 9.78447 1.32309 9.384C1.86776 8.97386 2.59062 8.65786 3.38859 8.42727ZM2.1573 11.1883C2.16375 11.2111 2.1946 11.2841 2.32747 11.405C2.51893 11.5791 2.84797 11.7786 3.33361 11.9654C4.29869 12.3366 5.69505 12.5859 7.28393 12.5859C8.87281 12.5859 10.2692 12.3366 11.2342 11.9654C11.7199 11.7786 12.0489 11.5791 12.2404 11.405C12.3733 11.2841 12.4041 11.2111 12.4106 11.1883C12.4032 11.1618 12.3594 11.0514 12.1232 10.8735C11.8615 10.6765 11.4547 10.4719 10.906 10.2935C9.85156 10.5674 8.60587 10.7214 7.28393 10.7214C5.96199 10.7214 4.7163 10.5674 3.66189 10.2935C3.1132 10.4719 2.70636 10.6765 2.44469 10.8735C2.20848 11.0514 2.16465 11.1618 2.1573 11.1883Z" fill="#F18933"/>
<path d="M2.32747 11.405C2.1946 11.2841 2.16375 11.2111 2.1573 11.1883C2.16465 11.1618 2.20848 11.0514 2.44469 10.8735C2.70636 10.6765 3.1132 10.4719 3.66189 10.2935C4.7163 10.5674 5.96199 10.7214 7.28393 10.7214C8.60587 10.7214 9.85156 10.5674 10.906 10.2935C11.4547 10.4719 11.8615 10.6765 12.1232 10.8735C12.3594 11.0514 12.4032 11.1618 12.4106 11.1883C12.4041 11.2111 12.3733 11.2841 12.2404 11.405C12.0489 11.5791 11.7199 11.7786 11.2342 11.9654C10.2692 12.3366 8.87281 12.5859 7.28393 12.5859C5.69505 12.5859 4.29869 12.3366 3.33361 11.9654C2.84797 11.7786 2.51893 11.5791 2.32747 11.405Z" fill="#F18933"/>
<path fill-rule="evenodd" clip-rule="evenodd" d="M3.38859 4.69808C3.55767 4.64922 3.73714 4.64922 3.90622 4.69808C4.82253 4.96287 5.99302 5.12758 7.28393 5.12758C8.57484 5.12758 9.74532 4.96287 10.6616 4.69808C10.8307 4.64922 11.0102 4.64922 11.1793 4.69808C11.9772 4.92867 12.7001 5.24467 13.2448 5.65481C13.7766 6.05528 14.2761 6.65779 14.2761 7.45831C14.2761 8.13315 13.9169 8.67145 13.4948 9.05529C13.073 9.43888 12.5146 9.74154 11.9036 9.97653C10.6754 10.4489 9.04183 10.7213 7.28393 10.7213C5.52603 10.7213 3.89245 10.4489 2.66427 9.97653C2.05329 9.74154 1.49488 9.43888 1.07304 9.05529C0.650929 8.67145 0.291748 8.13315 0.291748 7.45831C0.291748 6.65779 0.791252 6.05528 1.32309 5.65481C1.86776 5.24467 2.59062 4.92867 3.38859 4.69808ZM2.1573 7.45914C2.16375 7.48194 2.1946 7.55495 2.32747 7.67578C2.51893 7.84987 2.84797 8.04945 3.33361 8.23623C4.29869 8.60742 5.69505 8.85675 7.28393 8.85675C8.87281 8.85675 10.2692 8.60742 11.2342 8.23623C11.7199 8.04945 12.0489 7.84987 12.2404 7.67578C12.3733 7.55495 12.4041 7.48194 12.4106 7.45914C12.4032 7.43256 12.3594 7.3222 12.1232 7.14433C11.8615 6.9473 11.4547 6.74274 10.906 6.5643C9.85156 6.83821 8.60587 6.99217 7.28393 6.99217C5.96199 6.99217 4.7163 6.83821 3.66189 6.5643C3.1132 6.74273 2.70636 6.9473 2.44469 7.14433C2.20848 7.3222 2.16465 7.43257 2.1573 7.45914Z" fill="white"/>
<path d="M2.32747 7.67578C2.1946 7.55495 2.16375 7.48194 2.1573 7.45914C2.16465 7.43257 2.20848 7.3222 2.44469 7.14433C2.70636 6.9473 3.1132 6.74273 3.66189 6.5643C4.7163 6.83821 5.96199 6.99217 7.28393 6.99217C8.60587 6.99217 9.85156 6.83821 10.906 6.5643C11.4547 6.74274 11.8615 6.9473 12.1232 7.14433C12.3594 7.3222 12.4032 7.43256 12.4106 7.45914C12.4041 7.48194 12.3733 7.55495 12.2404 7.67578C12.0489 7.84987 11.7199 8.04945 11.2342 8.23623C10.2692 8.60742 8.87281 8.85675 7.28393 8.85675C5.69505 8.85675 4.29869 8.60742 3.33361 8.23623C2.84797 8.04945 2.51893 7.84987 2.32747 7.67578Z" fill="white"/>
<path fill-rule="evenodd" clip-rule="evenodd" d="M2.15707 3.26302C2.163 3.24119 2.19295 3.16788 2.32747 3.04555C2.51893 2.87145 2.84797 2.67188 3.33361 2.4851C4.29869 2.11391 5.69505 1.86458 7.28393 1.86458C8.87281 1.86458 10.2692 2.11391 11.2342 2.4851C11.7199 2.67188 12.0489 2.87145 12.2404 3.04555C12.3749 3.16788 12.4049 3.24119 12.4108 3.26302C12.4049 3.28485 12.3749 3.35816 12.2404 3.48049C12.0489 3.65458 11.7199 3.85416 11.2342 4.04094C10.2692 4.41212 8.87281 4.66146 7.28393 4.66146C5.69505 4.66146 4.29869 4.41212 3.33361 4.04094C2.84797 3.85416 2.51893 3.65458 2.32747 3.48049C2.19295 3.35816 2.163 3.28485 2.15707 3.26302ZM2.66427 0.744796C3.89245 0.27242 5.52603 0 7.28393 0C9.04183 0 10.6754 0.27242 11.9036 0.744796C12.5146 0.979788 13.073 1.28244 13.4948 1.66604C13.9169 2.04987 14.2761 2.58818 14.2761 3.26302C14.2761 3.93786 13.9169 4.47616 13.4948 4.86C13.073 5.24359 12.5146 5.54625 11.9036 5.78124C10.6754 6.25362 9.04183 6.52604 7.28393 6.52604C5.52603 6.52604 3.89245 6.25362 2.66427 5.78124C2.05329 5.54625 1.49488 5.24359 1.07304 4.86C0.650929 4.47616 0.291748 3.93786 0.291748 3.26302C0.291748 2.58818 0.650929 2.04987 1.07304 1.66604C1.49488 1.28244 2.05329 0.979788 2.66427 0.744796Z" fill="#F18933"/>
<path d="M2.15707 3.26302C2.163 3.24119 2.19295 3.16788 2.32747 3.04555C2.51893 2.87145 2.84797 2.67188 3.33361 2.4851C4.29869 2.11391 5.69505 1.86458 7.28393 1.86458C8.87281 1.86458 10.2692 2.11391 11.2342 2.4851C11.7199 2.67188 12.0489 2.87145 12.2404 3.04555C12.3749 3.16788 12.4049 3.24119 12.4108 3.26302C12.4049 3.28485 12.3749 3.35816 12.2404 3.48049C12.0489 3.65458 11.7199 3.85416 11.2342 4.04094C10.2692 4.41212 8.87281 4.66146 7.28393 4.66146C5.69505 4.66146 4.29869 4.41212 3.33361 4.04094C2.84797 3.85416 2.51893 3.65458 2.32747 3.48049C2.19295 3.35816 2.163 3.28485 2.15707 3.26302Z" fill="#F18933"/>
<path fill-rule="evenodd" clip-rule="evenodd" d="M21.1205 0.230671C21.472 -0.0768902 21.9969 -0.0768902 22.3484 0.230671L26.0775 3.49369C26.465 3.83275 26.5043 4.42173 26.1653 4.80923C25.8262 5.19672 25.2372 5.23599 24.8497 4.89693L22.6668 2.98684V21.4427C22.6668 21.9576 22.2494 22.375 21.7345 22.375C21.2196 22.375 20.8022 21.9576 20.8022 21.4427V2.98684L18.6192 4.89693C18.2317 5.23599 17.6427 5.19672 17.3037 4.80923C16.9646 4.42173 17.0039 3.83275 17.3914 3.49369L21.1205 0.230671Z" fill="white"/>
</svg>
