<svg width="24" height="21" viewBox="0 0 24 21" fill="none" xmlns="http://www.w3.org/2000/svg">
<path fill-rule="evenodd" clip-rule="evenodd" d="M22.6492 -4.65497e-08C23.2373 -2.0841e-08 23.7141 0.437055 23.7141 0.976189L23.7141 3.90476C23.7141 4.44389 23.2373 4.88095 22.6492 4.88095L1.3505 4.88095C0.762356 4.88095 0.285568 4.44389 0.285568 3.90476L0.285568 0.976188C0.285568 0.437054 0.762356 -1.00325e-06 1.3505 -9.77544e-07L22.6492 -4.65497e-08ZM21.5842 1.95238L2.41544 1.95238L2.41544 2.92857L21.5842 2.92857L21.5842 1.95238Z" fill="white"/>
<path d="M2.41544 1.95238L21.5842 1.95238L21.5842 2.92857L2.41544 2.92857L2.41544 1.95238Z" fill="white"/>
<path fill-rule="evenodd" clip-rule="evenodd" d="M0.285645 3.90475C0.285645 3.36561 0.722699 2.92856 1.26183 2.92856H22.738C23.2771 2.92856 23.7142 3.36561 23.7142 3.90475V19.5238C23.7142 20.0629 23.2771 20.5 22.738 20.5H1.26183C0.722699 20.5 0.285645 20.0629 0.285645 19.5238V3.90475ZM2.23802 4.88094V18.5476H21.7618V4.88094H2.23802Z" fill="#F18933"/>
<path d="M2.23802 18.5476V4.88094H21.7618V18.5476H2.23802Z" fill="#F18933"/>
<path d="M19.8095 11.7142C19.8095 12.7925 18.9354 13.6666 17.8572 13.6666C16.7789 13.6666 15.9048 12.7925 15.9048 11.7142C15.9048 10.636 16.7789 9.76187 17.8572 9.76187C18.9354 9.76187 19.8095 10.636 19.8095 11.7142Z" fill="white"/>
</svg>
