<svg width="29" height="29" viewBox="0 0 29 29" fill="none" xmlns="http://www.w3.org/2000/svg">
<path fill-rule="evenodd" clip-rule="evenodd" d="M21.2969 4.53125C20.5461 4.53125 19.9375 5.13987 19.9375 5.89062C19.9375 6.64138 20.5461 7.25 21.2969 7.25C22.0476 7.25 22.6563 6.64138 22.6563 5.89062C22.6563 5.13987 22.0476 4.53125 21.2969 4.53125ZM17.2188 5.89062C17.2188 3.63834 19.0447 1.8125 21.2969 1.8125C23.5491 1.8125 24.7923 3.59865 24.7923 5.85094C24.7923 7.62657 24.2402 9.17685 22.6563 9.7367V10.875C22.6563 13.3775 20.6275 15.4062 18.125 15.4062H10.875C9.874 15.4062 9.06251 16.2177 9.06251 17.2187V19.2632C10.6464 19.8231 11.7813 21.3337 11.7813 23.1094C11.7813 25.3616 9.95542 26.4333 7.70313 26.4333C5.45085 26.4333 4.20996 25.3616 4.20996 23.1094C4.20996 21.3337 4.75983 19.8231 6.34376 19.2632V17.2187V9.7367C4.75983 9.17685 4.67774 7.62657 4.67774 5.85094C4.67774 3.59865 5.45085 1.8125 7.70313 1.8125C9.95542 1.8125 11.7813 3.63834 11.7813 5.89062C11.7813 7.66626 10.6464 9.17685 9.06251 9.7367V13.0645C9.61755 12.822 10.2306 12.6875 10.875 12.6875H18.125C19.126 12.6875 19.9375 11.876 19.9375 10.875V9.7367C18.3536 9.17685 17.2188 7.66626 17.2188 5.89062ZM7.70313 21.75C6.95237 21.75 6.34376 22.3586 6.34376 23.1094C6.34376 23.8601 6.95237 24.4687 7.70313 24.4687C8.45389 24.4687 9.06251 23.8601 9.06251 23.1094C9.06251 22.3586 8.45389 21.75 7.70313 21.75ZM6.34376 5.89062C6.34376 5.13987 6.95237 4.53125 7.70313 4.53125C8.45389 4.53125 9.06251 5.13987 9.06251 5.89062C9.06251 6.64138 8.45389 7.25 7.70313 7.25C6.95237 7.25 6.34376 6.64138 6.34376 5.89062Z" fill="#F18933"/>
<circle cx="7.95222" cy="5.8509" r="4.21003" fill="white"/>
<circle cx="7.95222" cy="22.691" r="4.21003" fill="white"/>
<circle cx="21.0501" cy="5.8509" r="4.21003" fill="white"/>
</svg>
