<?xml version="1.0" encoding="utf-8"?>
<!-- Generator: Adobe Illustrator 22.0.1, SVG Export Plug-In . SVG Version: 6.00 Build 0)  -->
<svg version="1.1" id="Слой_1" xmlns="http://www.w3.org/2000/svg" xmlns:xlink="http://www.w3.org/1999/xlink" x="0px" y="0px"
	 viewBox="0 0 15 14" style="enable-background:new 0 0 15 14;" xml:space="preserve">
<style type="text/css">
	.st0{fill:#24292E;}
</style>
<g>
	<g>
		<path class="st0" d="M9,7l5.3-5.3c0.4-0.4,0.4-1,0-1.4c-0.4-0.4-1-0.4-1.4,0L7.6,5.6L2.3,0.3c-0.4-0.4-1-0.4-1.4,0s-0.4,1,0,1.4
			L6.1,7l-5.3,5.3c-0.4,0.4-0.4,1,0,1.4c0.4,0.4,1,0.4,1.4,0l0,0l5.3-5.3l5.3,5.3c0.4,0.4,1,0.4,1.4,0c0,0,0,0,0,0
			c0.4-0.4,0.4-1,0-1.4c0,0,0,0,0,0L9,7z"/>
	</g>
</g>
</svg>
