<svg width="85" height="33" viewBox="0 0 85 33" fill="none" xmlns="http://www.w3.org/2000/svg">
<path d="M1 29.413H3.30728C3.75482 29.413 4.14787 29.1157 4.26959 28.685L5.68223 23.6867C5.92768 22.8183 7.10715 22.6936 7.52873 23.4916L9.63262 27.4739C9.66469 27.5346 9.69042 27.5985 9.70941 27.6644L10.4252 30.1511C10.6492 30.9292 11.6567 31.1324 12.1648 30.5021L15.1853 26.7546C15.6785 26.1426 16.6525 26.3127 16.9091 27.0556L18.2136 30.832C18.4213 31.4334 19.1304 31.6904 19.6752 31.3618L21.2965 30.384C21.541 30.2365 21.7108 29.9916 21.7631 29.7109L25.543 9.43487C25.6882 8.65609 26.7527 8.53319 27.0715 9.2584V9.2584C27.3535 9.89982 28.2635 9.89982 28.5455 9.2584L29.333 7.4671C29.4927 7.104 29.8518 6.86957 30.2485 6.86957H32.9683C33.3947 6.86957 33.7743 6.59914 33.9135 6.19607L35.607 1.29358C35.9349 0.344122 37.3012 0.416781 37.5267 1.39567L38.1863 4.26011C38.394 5.16186 39.6096 5.32211 40.0439 4.50498L40.0957 4.40748C40.5285 3.59307 41.7392 3.74884 41.9518 4.64627L44.2534 14.363C44.345 14.7499 44.6572 15.0458 45.0484 15.1165L46.01 15.2905C46.2881 15.3409 46.532 15.5065 46.6812 15.7465L47.7858 17.5231C48.2018 18.1922 49.1923 18.1397 49.5353 17.4304L50.4707 15.4962C50.5113 15.4122 50.54 15.3229 50.5558 15.231L51.4929 9.80552C51.6284 9.02132 52.5811 8.70184 53.1619 9.24585L55.2115 11.1654C55.6871 11.6109 56.455 11.4897 56.7703 10.9193L57.2106 10.1225C57.6117 9.39686 58.6708 9.4464 59.0024 10.2063L61.2269 15.3045C61.2458 15.3478 61.2616 15.3924 61.2742 15.438L62.9159 21.3787C63.1806 22.3364 64.5286 22.3639 64.832 21.4178L66.7557 15.4204C66.9447 14.8314 67.6368 14.5767 68.1625 14.9028V14.9028C68.5864 15.1658 69.1415 15.0564 69.434 14.6523L73.4941 9.04261C73.9503 8.41226 74.92 8.52156 75.2245 9.23767L76.0197 11.1081C76.2901 11.7442 77.109 11.9207 77.6174 11.4523L77.9766 11.1215C78.5704 10.5745 79.5342 10.9204 79.6447 11.7202L80.2053 15.7775C80.356 16.8679 81.9006 16.9502 82.1663 15.882L84.5 6.5" stroke="#CCCCCC" stroke-linecap="round"/>
</svg>
