<svg width="30" height="25" viewBox="0 0 30 25" fill="none" xmlns="http://www.w3.org/2000/svg">
<path fill-rule="evenodd" clip-rule="evenodd" d="M0 1.60714C0 1.18091 0.169329 0.772114 0.470722 0.470722C0.772114 0.169329 1.18091 0 1.60714 0H28.3929C28.8191 0 29.2279 0.169329 29.5292 0.470722C29.8307 0.772114 30 1.18091 30 1.60714C30 2.03338 29.8307 2.44217 29.5292 2.74356C29.2279 3.04496 28.8191 3.21429 28.3929 3.21429H1.60714C1.18091 3.21429 0.772114 3.04496 0.470722 2.74356C0.169329 2.44217 0 2.03338 0 1.60714ZM0 12.3214C0 11.8952 0.169329 11.4864 0.470722 11.185C0.772114 10.8836 1.18091 10.7143 1.60714 10.7143H28.3929C28.8191 10.7143 29.2279 10.8836 29.5292 11.185C29.8307 11.4864 30 11.8952 30 12.3214C30 12.7477 29.8307 13.1565 29.5292 13.4578C29.2279 13.7592 28.8191 13.9286 28.3929 13.9286H1.60714C1.18091 13.9286 0.772114 13.7592 0.470722 13.4578C0.169329 13.1565 0 12.7477 0 12.3214ZM1.60714 21.4286C1.18091 21.4286 0.772114 21.5979 0.470722 21.8994C0.169329 22.2006 0 22.6095 0 23.0357C0 23.4619 0.169329 23.8708 0.470722 24.1721C0.772114 24.4736 1.18091 24.6429 1.60714 24.6429H28.3929C28.8191 24.6429 29.2279 24.4736 29.5292 24.1721C29.8307 23.8708 30 23.4619 30 23.0357C30 22.6095 29.8307 22.2006 29.5292 21.8994C29.2279 21.5979 28.8191 21.4286 28.3929 21.4286H1.60714Z" fill="#FF7300"/>
</svg>
