<svg width="24" height="24" viewBox="0 0 24 24" fill="none" xmlns="http://www.w3.org/2000/svg">
<path d="M12 1.00024L20.217 2.82624C20.674 2.92824 21 3.33324 21 3.80224V13.7892C21 15.7952 19.997 17.6692 18.328 18.7812L12 23.0002L5.672 18.7812C4.002 17.6682 3 15.7952 3 13.7902V3.80224C3 3.33324 3.326 2.92824 3.783 2.82624L12 1.00024ZM12 3.04924L5 4.60424V13.7892C5 15.1262 5.668 16.3752 6.781 17.1172L12 20.5972L17.219 17.1172C18.332 16.3752 19 15.1272 19 13.7902V4.60424L12 3.05024V3.04924ZM16.452 8.22224L17.867 9.63624L11.503 16.0002L7.26 11.7572L8.674 10.3432L11.502 13.1712L16.452 8.22124V8.22224Z" fill="#F18933"/>
</svg>
