<svg width="40" height="40" viewBox="0 0 40 40" fill="none" xmlns="http://www.w3.org/2000/svg">
<g clip-path="url(#clip0)">
<path d="M30.1392 17.073C29.2496 18.8078 27.4461 20 25.3658 20C23.2854 20 21.4827 18.8078 20.5923 17.073H0V35.6099H30.386C29.3862 34.4214 28.7802 32.8912 28.7802 31.2198C28.7802 27.957 31.0824 25.2247 34.146 24.5523V17.073H30.1392ZM17.073 32.1954C13.8404 32.1954 11.219 29.574 11.219 26.3414C11.219 23.1088 13.8397 20.4874 17.073 20.4874C20.3064 20.4874 22.927 23.1081 22.927 26.3414C22.927 29.5748 20.3056 32.1954 17.073 32.1954Z" fill="#F18933"/>
<path d="M35.6084 35.6069C38.033 35.6069 39.9985 33.6414 39.9985 31.2168C39.9985 28.7922 38.033 26.8267 35.6084 26.8267C33.1838 26.8267 31.2183 28.7922 31.2183 31.2168C31.2183 33.6414 33.1838 35.6069 35.6084 35.6069Z" fill="#F18933"/>
<path d="M25.3657 17.5612C26.9823 17.5612 28.2927 16.2507 28.2927 14.6342C28.2927 13.0177 26.9823 11.7072 25.3657 11.7072C23.7492 11.7072 22.4387 13.0177 22.4387 14.6342C22.4387 16.2507 23.7492 17.5612 25.3657 17.5612Z" fill="#F18933"/>
<path d="M6.39658 4.39014L4.54712 14.6342H20.0001C20.0001 11.6756 22.4071 9.26846 25.3658 9.26846C28.3245 9.26846 30.7316 11.6756 30.7316 14.6342H34.1461H36.5848V17.073V24.4679C36.8754 24.5101 37.1606 24.569 37.4383 24.6459L40 10.4562L6.39658 4.39014Z" fill="#F0AA10"/>
</g>
<defs>
<clipPath id="clip0">
<rect width="40" height="40" fill="white"/>
</clipPath>
</defs>
</svg>
