<svg width="35" height="41" viewBox="0 0 35 41" fill="none" xmlns="http://www.w3.org/2000/svg">
<path fill-rule="evenodd" clip-rule="evenodd" d="M17.4346 3.48693C14.5459 3.48693 12.2042 5.82866 12.2042 8.71734C12.2042 11.606 14.5459 13.9477 17.4346 13.9477C20.3233 13.9477 22.665 11.606 22.665 8.71734C22.665 5.82866 20.3233 3.48693 17.4346 3.48693ZM8.71729 8.71734C8.71729 3.90288 12.6202 0 17.4346 0C22.2491 0 26.152 3.90288 26.152 8.71734C26.152 13.5318 22.2491 17.4347 17.4346 17.4347C12.6202 17.4347 8.71729 13.5318 8.71729 8.71734Z" fill="#F0AA10"/>
<path d="M12.2042 8.71734C12.2042 5.82866 14.5459 3.48693 17.4346 3.48693C20.3233 3.48693 22.665 5.82866 22.665 8.71734C22.665 11.606 20.3233 13.9477 17.4346 13.9477C14.5459 13.9477 12.2042 11.606 12.2042 8.71734Z" fill="#F0AA10"/>
<path d="M15.023 24.5958L17.4348 26.5316L19.8467 24.5958C19.0984 24.4745 18.296 24.4086 17.4348 24.4086C16.5736 24.4086 15.7712 24.4745 15.023 24.5958Z" fill="#F18933"/>
<path fill-rule="evenodd" clip-rule="evenodd" d="M17.4348 24.4086C16.5736 24.4086 15.7712 24.4745 15.023 24.5958L12.4341 21.6151C13.9387 21.1695 15.6018 20.9216 17.4348 20.9216C19.4994 20.9216 21.3484 21.2361 22.9981 21.7934L19.8467 24.5958C19.0984 24.4745 18.296 24.4086 17.4348 24.4086ZM17.2417 40.0891H17.6279C17.4996 40.1033 17.37 40.1033 17.2417 40.0891Z" fill="#F18933"/>
<path d="M23.7639 25.9228L19.6873 29.1949L22.4355 34.0044C22.8256 34.687 22.7105 35.5462 22.1546 36.1022L18.6676 39.5891C18.3764 39.8804 18.0078 40.047 17.6279 40.0891H32.9301H33.3186C34.2756 39.9828 34.9652 39.1208 34.8588 38.1638L33.126 38.3563C34.8588 38.1638 34.8585 38.1608 34.8585 38.1608L34.858 38.1568L34.8568 38.1459L34.8528 38.1124C34.8494 38.0849 34.8446 38.0473 34.8382 38C34.8254 37.9054 34.8061 37.7722 34.7789 37.6047C34.7245 37.2701 34.638 36.7974 34.5073 36.2225C34.2464 35.0761 33.8053 33.5058 33.0805 31.8064C31.9521 29.1606 30.0809 26.0792 27.0239 23.8672L23.7639 25.9228Z" fill="#F18933"/>
<path d="M16.202 39.5891L12.7151 36.1022C12.1591 35.5462 12.0441 34.687 12.4341 34.0044L15.1824 29.1949L11.1057 25.9228L8.32118 23.5368C4.9809 25.7648 2.97488 29.0262 1.78912 31.8064C1.06433 33.5058 0.623199 35.0761 0.362385 36.2225C0.231605 36.7974 0.145159 37.2701 0.0907551 37.6047C0.0635339 37.7722 0.0442763 37.9054 0.0314677 38C0.0250618 38.0473 0.0202641 38.0849 0.0168862 38.1124L0.012859 38.1459L0.0115988 38.1568L0.0111493 38.1608L0.0108173 38.1638C-0.0955161 39.1208 0.594086 39.9828 1.55109 40.0891H1.93906H17.2417C16.8619 40.047 16.4932 39.8804 16.202 39.5891Z" fill="#F18933"/>
<path d="M16.1223 34.5782L17.4348 32.2813L18.7473 34.5782L17.4348 35.8907L16.1223 34.5782Z" fill="#F18933"/>
</svg>
