<svg width="22" height="22" viewBox="0 0 22 22" fill="none" xmlns="http://www.w3.org/2000/svg">
<path fill-rule="evenodd" clip-rule="evenodd" d="M11 22C17.0752 22 22 17.0752 22 11C22 4.92486 17.0752 0 11 0C4.92486 0 0 4.92486 0 11C0 17.0752 4.92486 22 11 22ZM16.1979 8.63545C16.6007 8.23273 16.6007 7.57977 16.1979 7.17705C15.7952 6.77432 15.1423 6.77432 14.7396 7.17705L9.28125 12.6353L7.26045 10.6145C6.85773 10.2118 6.20477 10.2118 5.80205 10.6145C5.39932 11.0173 5.39932 11.6702 5.80205 12.073L8.55205 14.8229C8.95477 15.2256 9.60773 15.2256 10.0105 14.8229L16.1979 8.63545Z" fill="#F18933"/>
</svg>
