<svg width="26" height="26" viewBox="0 0 26 26" fill="none" xmlns="http://www.w3.org/2000/svg">
<path fill-rule="evenodd" clip-rule="evenodd" d="M3.78818 16.9706C4.23065 16.7163 4.79554 16.8688 5.04989 17.3112C5.86662 18.732 7.02989 19.9228 8.43119 20.7725C9.8325 21.6222 11.4262 22.1031 13.0636 22.1704C13.5735 22.1914 13.9699 22.6218 13.949 23.1317C13.928 23.6416 13.4976 24.038 12.9877 24.0171C11.0384 23.9369 9.14114 23.3644 7.47292 22.3529C5.8047 21.3413 4.41985 19.9237 3.44756 18.2323C3.1932 17.7899 3.3457 17.225 3.78818 16.9706Z" fill="white"/>
<path fill-rule="evenodd" clip-rule="evenodd" d="M23.1359 7.98024C22.6934 8.23459 22.1285 8.08209 21.8742 7.63962C21.0575 6.21885 19.8942 5.02809 18.4929 4.1784C17.0916 3.32871 15.4979 2.84777 13.8605 2.78046C13.3506 2.7595 12.9542 2.32911 12.9751 1.81918C12.9961 1.30924 13.4265 0.912842 13.9364 0.933806C15.8857 1.01394 17.7829 1.58648 19.4512 2.59801C21.1194 3.60955 22.5042 5.02713 23.4765 6.71852C23.7309 7.16099 23.5784 7.72588 23.1359 7.98024Z" fill="white"/>
<path fill-rule="evenodd" clip-rule="evenodd" d="M5.60707 1.84821C4.58633 1.84821 3.75886 2.67569 3.75886 3.69643C3.75886 4.71717 4.58633 5.54464 5.60707 5.54464C6.62781 5.54464 7.45529 4.71717 7.45529 3.69643C7.45529 2.67569 6.62781 1.84821 5.60707 1.84821ZM1.91064 3.69643C1.91064 1.65495 3.56559 0 5.60707 0C7.64855 0 9.3035 1.65495 9.3035 3.69643C9.3035 5.73791 7.64855 7.39286 5.60707 7.39286C3.56559 7.39286 1.91064 5.73791 1.91064 3.69643Z" fill="#F18933"/>
<path d="M3.75886 3.69643C3.75886 2.67569 4.58633 1.84821 5.60707 1.84821C6.62781 1.84821 7.45529 2.67569 7.45529 3.69643C7.45529 4.71717 6.62781 5.54464 5.60707 5.54464C4.58633 5.54464 3.75886 4.71717 3.75886 3.69643Z" fill="#F18933"/>
<path fill-rule="evenodd" clip-rule="evenodd" d="M20.393 12.0134C19.3722 12.0134 18.5447 12.8408 18.5447 13.8616C18.5447 14.8823 19.3722 15.7098 20.393 15.7098C21.4137 15.7098 22.2412 14.8823 22.2412 13.8616C22.2412 12.8408 21.4137 12.0134 20.393 12.0134ZM16.6965 13.8616C16.6965 11.8201 18.3515 10.1652 20.393 10.1652C22.4344 10.1652 24.0894 11.8201 24.0894 13.8616C24.0894 15.9031 22.4344 17.558 20.393 17.558C18.3515 17.558 16.6965 15.9031 16.6965 13.8616Z" fill="#F18933"/>
<path d="M18.5447 13.8616C18.5447 12.8408 19.3722 12.0134 20.393 12.0134C21.4137 12.0134 22.2412 12.8408 22.2412 13.8616C22.2412 14.8823 21.4137 15.7098 20.393 15.7098C19.3722 15.7098 18.5447 14.8823 18.5447 13.8616Z" fill="#F18933"/>
<path d="M0.0625 14.7857C0.0625 15.2961 0.476237 15.7098 0.986607 15.7098H10.2277C10.738 15.7098 11.1518 15.2961 11.1518 14.7857V13.8616C11.1518 10.7994 8.66936 8.31696 5.60714 8.31696C2.54492 8.31696 0.0625 10.7994 0.0625 13.8616V14.7857Z" fill="#F18933"/>
<path d="M14.8481 24.9509C14.8481 25.4612 15.2619 25.875 15.7723 25.875H25.0133C25.5237 25.875 25.9374 25.4612 25.9374 24.9509V24.0268C25.9374 20.9645 23.455 18.4821 20.3928 18.4821C17.3306 18.4821 14.8481 20.9645 14.8481 24.0268V24.9509Z" fill="#F18933"/>
</svg>
