<svg width="94" height="146" viewBox="0 0 94 146" fill="none" xmlns="http://www.w3.org/2000/svg">
<path d="M84.2681 35L94 0.6125C94 0.6125 88.4389 0.3325 83.573 0.1575L77.6122 0C74.6753 0 71.7036 0 68.5233 0C66.577 0 63.8486 0.105 62.2498 0.175L59 0.385L63.4141 35H84.2681Z" fill="#F18933"/>
<path d="M39.1624 40L17 16.79C17.9094 15.7285 18.8945 14.7399 19.9469 13.8327C22.5056 11.4936 25.3094 9.46154 28.3052 7.77482C29.7356 6.96829 31.2866 6.23346 32.9927 5.46278L33.9061 5.05055C34.8023 4.67417 35.6295 4.36949 36.4222 4.04688C37.8181 3.52711 39.1279 3.09697 40.3342 2.75643C42.3678 2.1933 44.4345 1.76823 46.5211 1.48392C48.6408 1.17923 50.4848 1 50.4848 1L55 35.9315C52.1999 36.1883 49.4193 36.6373 46.6762 37.2757C44.102 37.9611 41.5884 38.8725 39.1624 40Z" fill="#F18933"/>
<path d="M34 42.8376L12.6546 21C9.37055 26.0386 6.8062 31.5301 5.03901 37.3088C3.67489 41.1442 2.65763 45.0993 2 49.1244L22.4047 58C23.5445 55.0414 25.0719 52.2547 26.9452 49.7161C28.8964 47.0294 31.2824 44.7031 34 42.8376Z" fill="#F18933"/>
<path d="M20 64.5996L0.791419 57C0.124646 63.0691 -0.121229 69.1734 0.0553896 75.2732C0.0553896 78.0228 0.52214 84 0.52214 84L17.5585 82.2922C17.5915 79.0417 17.8373 75.7964 18.2946 72.5749C18.6415 69.878 19.2118 67.2112 20 64.5996Z" fill="#F18933"/>
<path d="M17.2992 89C17.2992 89 17.2992 91.0028 17.5843 93.9342C18.0244 99.5486 18.8316 105.122 20 110.612L7.78751 115C7.78751 115 6.26095 110.594 4.61696 104.294C3.48233 99.8185 2.60829 95.2698 2 90.6751L17.2992 89Z" fill="#F18933"/>
<path d="M89.1158 104.776L38.4021 83.1737C38.2299 78.1375 38.9111 73.1087 40.4164 68.3042C40.7987 67.1039 41.3129 65.9506 41.9494 64.8659C42.6857 63.6518 43.559 62.5282 44.5519 61.5176C46.4738 59.6957 48.8136 58.3843 51.3613 57.7012C53.0631 57.1732 54.8126 56.8174 56.5842 56.6391C59.258 56.351 64.4987 56.441 64.4987 56.441H70.4703L73.358 79.8434L58.6341 73.5428L60.1671 85.55L86.0676 96.5851L79.8822 46C79.7217 46 63.9818 46 63.9818 46C60.0215 46.0258 56.0651 46.2542 52.1278 46.6841L50.3452 46.9541C47.0229 47.5666 43.8393 48.7868 40.9511 50.5545C38.9986 51.7772 37.2432 53.2949 35.7461 55.0549L34.9439 56.027C31.7747 60.5285 29.6818 65.7106 28.8298 71.1665C28.2175 74.9262 27.9431 78.7341 28.0098 82.5437C27.9853 90.4098 28.5813 98.2655 29.7923 106.036C30.2191 108.686 30.9304 111.282 31.9136 113.777C32.859 115.99 34.2631 117.973 36.0313 119.591C37.9761 121.212 40.0995 122.602 42.3594 123.732C47.0653 125.892 62.9479 132.733 62.9479 132.733C62.9479 132.733 93.893 145.91 94 146L89.1158 104.776ZM40.149 107.116C39.8994 105.802 39.5073 101.86 39.5073 101.86L38.8299 94.8209L79.8287 112.301L81.9856 129.186L49.1865 115.271C49.1865 115.271 45.9423 113.957 44.9262 113.471C44.1512 113.061 43.4272 112.559 42.7693 111.977C42.1402 111.396 41.5943 110.729 41.1472 109.996C40.6384 109.108 40.2997 108.131 40.149 107.116Z" fill="#F18933"/>
<path d="M70.3388 119.655L77.5016 122.681L76.4681 114.3L69.3054 111.292L70.3388 119.655Z" fill="#F18933"/>
<path d="M57.2427 114.086L64.5479 117.184L63.5145 108.839L56.2271 105.759L57.2427 114.086Z" fill="#F18933"/>
<path d="M50.4183 103.323L43.0952 100.243L44.2177 108.552L51.4517 111.632L50.4183 103.323Z" fill="#F18933"/>
</svg>
