<svg width="218" height="62" viewBox="0 0 218 62" fill="none" xmlns="http://www.w3.org/2000/svg">
<g clip-path="url(#clip0)">
<path d="M47.4961 25.5719H57.9317C59.3713 25.4931 60.8108 25.73 62.15 26.2662C63.078 26.7117 63.8783 27.3863 64.4758 28.2268C65.0997 29.1491 65.4115 30.2484 65.3651 31.3623C65.3651 33.8493 64.0198 35.5124 61.3292 36.3515C62.7099 36.5962 63.9535 37.3398 64.8254 38.4419C65.5774 39.4186 65.9863 40.6176 65.9883 41.852C65.994 42.6713 65.8277 43.4826 65.5003 44.2331C65.1729 44.9836 64.6918 45.6565 64.0882 46.2081C62.8366 47.444 60.7844 48.0619 57.9317 48.0619H47.4961V25.5719ZM52.7329 29.5389V34.4596H56.7004C58.1521 34.4596 59.0718 34.1773 59.4518 33.5975C59.807 33.1161 60.0132 32.5403 60.0447 31.942C60.0592 31.4129 59.8959 30.8943 59.581 30.4697C59.3338 30.1072 58.9725 29.8385 58.5549 29.7068C57.8312 29.5697 57.0943 29.516 56.3584 29.5466L52.7329 29.5389ZM52.7329 38.4647V43.8813H56.7612C57.7896 43.9648 58.8158 43.6959 59.6722 43.1184C59.9579 42.8685 60.183 42.5565 60.3305 42.2062C60.478 41.8559 60.544 41.4765 60.5235 41.0967C60.5251 40.7425 60.4529 40.392 60.3115 40.0674C60.1702 39.7429 59.9628 39.4517 59.7026 39.2124C58.929 38.6185 57.9577 38.3454 56.9892 38.4495L52.7329 38.4647Z" fill="#F18933"/>
<path d="M74.615 25.572V48.062H69.3782V25.572H74.615Z" fill="#F18933"/>
<path d="M93.2972 25.572V30.0197H87.7564V48.062H82.436V30.0197H76.8647V25.572H93.2972Z" fill="#F18933"/>
<path d="M105.466 48.062L99.94 29.7527V48.062H95.5469V25.572H103.718L107.647 39.0218L111.782 25.572H119.975V48.062H114.693V29.7527L109.061 48.062H105.466Z" fill="#202020"/>
<path d="M140.428 29.8518H129.788V34.4292H138.148V38.6632H129.788V43.5686H140.428V48.062H124.467V25.572H140.428V29.8518Z" fill="#202020"/>
<path d="M148.896 43.5991H157.803V48.062H143.575V25.572H148.896V43.5991Z" fill="#202020"/>
<path d="M176.486 29.8518H165.845V34.4292H174.205V38.6632H165.845V43.5686H176.486V48.062H160.524V25.572H176.486V29.8518Z" fill="#202020"/>
<path d="M197.691 33.9332L192.196 34.2842C192.12 31.1105 190.889 29.5237 188.502 29.5237C185.761 29.5237 184.39 31.965 184.39 36.8475C184.39 39.6702 184.763 41.585 185.508 42.592C185.863 43.085 186.334 43.4822 186.879 43.7484C187.424 44.0145 188.026 44.1415 188.631 44.1178C190.798 44.1178 192.128 42.6988 192.607 39.8685L197.691 40.1813C197.524 42.5281 196.453 44.7172 194.704 46.2844C192.749 47.8 190.307 48.5391 187.843 48.3604C185.379 48.1816 183.068 47.0976 181.35 45.3155C179.496 43.2812 178.568 40.4432 178.568 36.8017C178.441 33.7909 179.396 30.8345 181.259 28.4709C182.152 27.3986 183.28 26.5481 184.555 25.9856C185.83 25.4232 187.218 25.1641 188.609 25.2287C193.99 25.2287 197.017 28.1302 197.691 33.9332Z" fill="#202020"/>
<path d="M218 25.572V48.062H212.854V38.7776H205.862V48.062H200.716V25.572H205.862V34.33H212.854V25.572H218Z" fill="#202020"/>
<path d="M35.8291 15.2578L40.0854 0.267011C40.0854 0.267011 37.6532 0.144949 35.5251 0.06866L32.9181 0C31.6336 0 30.3339 0 28.943 0C28.0917 0 26.8984 0.0457734 26.1991 0.0762889L24.7778 0.167836L26.7084 15.2578H35.8291Z" fill="#F18933"/>
<path d="M16.8354 16.9896L7.06104 7.11021C7.46209 6.65839 7.89656 6.23761 8.36074 5.85145C9.4892 4.85581 10.7258 3.99084 12.047 3.27288C12.6779 2.92958 13.3619 2.6168 14.1144 2.28875L14.5172 2.11329C14.9124 1.95308 15.2773 1.82339 15.6269 1.68607C16.2425 1.46483 16.8202 1.28174 17.3522 1.13679C18.2491 0.897092 19.1606 0.71616 20.0808 0.59514C21.0157 0.465449 21.829 0.38916 21.829 0.38916L23.8203 15.2579C22.5854 15.3672 21.359 15.5583 20.1492 15.83C19.0139 16.1218 17.9053 16.5097 16.8354 16.9896Z" fill="#F18933"/>
<path d="M14.2057 18.4694L5.237 9.45972C3.85714 11.5385 2.77967 13.8042 2.03715 16.1884C1.46399 17.7708 1.03657 19.4026 0.760254 21.0633L9.33372 24.7251C9.81261 23.5045 10.4544 22.3547 11.2415 21.3074C12.0613 20.1989 13.0638 19.2391 14.2057 18.4694Z" fill="#F18933"/>
<path d="M8.44427 27.4639L0.311638 24.0691C0.0293359 26.7802 -0.0747641 29.5071 1.36513e-05 32.232C1.36513e-05 33.4603 0.197629 36.1304 0.197629 36.1304L7.41059 35.3675C7.42455 33.9154 7.52863 32.4657 7.72221 31.0266C7.86911 29.8219 8.11055 28.6306 8.44427 27.4639Z" fill="#F18933"/>
<path d="M7.47128 38.3428C7.47128 38.3428 7.47128 39.182 7.60049 40.4102C7.79986 42.7627 8.16561 45.0979 8.69498 47.3983L3.16175 49.2368C3.16175 49.2368 2.4701 47.3906 1.72524 44.751C1.21117 42.8758 0.815152 40.9698 0.539551 39.0446L7.47128 38.3428Z" fill="#F18933"/>
<path d="M38.0028 44.5831L16.3792 35.4285C16.3057 33.2942 16.5962 31.163 17.238 29.127C17.401 28.6183 17.6203 28.1296 17.8917 27.6699C18.2056 27.1554 18.578 26.6792 19.0014 26.2509C19.8208 25.4788 20.8185 24.9231 21.9048 24.6336C22.6304 24.4099 23.3764 24.2591 24.1318 24.1835C25.2718 24.0614 27.5064 24.0996 27.5064 24.0996H30.0526L31.2839 34.0171L25.0058 31.347L25.6595 36.4355L36.7031 41.112L34.0657 19.6748C33.9973 19.6748 27.286 19.6748 27.286 19.6748C25.5974 19.6858 23.9105 19.7825 22.2316 19.9647L21.4716 20.0791C20.055 20.3387 18.6975 20.8558 17.466 21.6049C16.6335 22.1231 15.885 22.7663 15.2467 23.5121L14.9046 23.9241C13.5533 25.8318 12.661 28.0279 12.2976 30.34C12.0366 31.9333 11.9196 33.547 11.948 35.1615C11.9376 38.495 12.1917 41.8241 12.7081 45.1172C12.8901 46.2403 13.1933 47.3403 13.6125 48.3976C14.0157 49.3354 14.6144 50.1757 15.3683 50.8617C16.1975 51.5487 17.1029 52.1375 18.0665 52.6164C20.073 53.5318 26.8452 56.4308 26.8452 56.4308C26.8452 56.4308 40.0398 62.0152 40.0854 62.0533L38.0028 44.5831ZM17.124 45.5749C17.0176 45.018 16.8504 43.3473 16.8504 43.3473L16.5616 40.3644L34.0429 47.772L34.9626 54.9279L20.9775 49.0308C20.9775 49.0308 19.5942 48.4739 19.161 48.2679C18.8305 48.0941 18.5218 47.8816 18.2413 47.6347C17.9731 47.3886 17.7403 47.1061 17.5497 46.7955C17.3327 46.4191 17.1883 46.005 17.124 45.5749Z" fill="#F18933"/>
<path d="M29.9919 51.1441L33.0473 52.4334L32.6065 48.8631L29.551 47.5814L29.9919 51.1441Z" fill="#F18933"/>
<path d="M24.4054 48.7716L27.5216 50.0914L27.0808 46.5363L23.9722 45.2241L24.4054 48.7716Z" fill="#F18933"/>
<path d="M21.4944 44.1866L18.3706 42.8744L18.8494 46.4142L21.9353 47.7264L21.4944 44.1866Z" fill="#F18933"/>
</g>
<defs>
<clipPath id="clip0">
<rect width="218" height="62" fill="white"/>
</clipPath>
</defs>
</svg>
