<svg width="151" height="43" viewBox="0 0 151 43" fill="none" xmlns="http://www.w3.org/2000/svg">
<g clip-path="url(#clip0)">
<path d="M32.8984 17.7358H40.1268C41.124 17.6812 42.121 17.8455 43.0486 18.2173C43.6914 18.5263 44.2457 18.9942 44.6596 19.5771C45.0918 20.2168 45.3077 20.9792 45.2756 21.7517C45.2756 23.4766 44.3437 24.63 42.4801 25.212C43.4364 25.3817 44.2979 25.8974 44.9018 26.6618C45.4226 27.3392 45.7059 28.1708 45.7073 29.0269C45.7112 29.5951 45.596 30.1577 45.3692 30.6783C45.1425 31.1988 44.8092 31.6655 44.3911 32.048C43.5242 32.9052 42.1028 33.3337 40.1268 33.3337H32.8984V17.7358ZM36.5258 20.4872V23.8999H39.2739C40.2794 23.8999 40.9165 23.7041 41.1797 23.302C41.4257 22.9681 41.5686 22.5688 41.5903 22.1538C41.6004 21.7869 41.4873 21.4272 41.2692 21.1327C41.0979 20.8813 40.8477 20.6949 40.5585 20.6036C40.0572 20.5085 39.5467 20.4712 39.037 20.4925L36.5258 20.4872ZM36.5258 26.6776V30.4343H39.316C40.0283 30.4922 40.7392 30.3057 41.3324 29.9052C41.5302 29.7318 41.6861 29.5155 41.7883 29.2725C41.8905 29.0296 41.9362 28.7664 41.922 28.503C41.9231 28.2574 41.8731 28.0143 41.7752 27.7892C41.6773 27.5641 41.5336 27.3621 41.3534 27.1962C40.8175 26.7843 40.1448 26.5949 39.474 26.6671L36.5258 26.6776Z" fill="#F18933"/>
<path d="M51.6825 17.7358V33.3337H48.0552V17.7358H51.6825Z" fill="#F18933"/>
<path d="M64.6231 17.7358V20.8205H60.7852V33.3337H57.0999V20.8205H53.241V17.7358H64.6231Z" fill="#F18933"/>
<path d="M73.0517 33.3337L69.2244 20.6353V33.3337H66.1814V17.7358H71.8409L74.5627 27.0639L77.4266 17.7358H83.1019V33.3337H79.443V20.6353L75.5419 33.3337H73.0517Z" fill="white"/>
<path d="M97.2691 20.7041H89.8986V23.8787H95.6897V26.8152H89.8986V30.2173H97.2691V33.3337H86.2134V17.7358H97.2691V20.7041Z" fill="white"/>
<path d="M103.134 30.2385H109.304V33.3337H99.4485V17.7358H103.134V30.2385Z" fill="white"/>
<path d="M122.244 20.7041H114.874V23.8787H120.665V26.8152H114.874V30.2173H122.244V33.3337H111.189V17.7358H122.244V20.7041Z" fill="white"/>
<path d="M136.933 23.5347L133.126 23.7781C133.074 21.577 132.221 20.4765 130.568 20.4765C128.669 20.4765 127.72 22.1696 127.72 25.5559C127.72 27.5135 127.978 28.8416 128.494 29.54C128.74 29.8819 129.066 30.1574 129.443 30.342C129.821 30.5266 130.238 30.6146 130.657 30.5982C132.158 30.5982 133.079 29.6141 133.411 27.6511L136.933 27.868C136.817 29.4957 136.075 31.0139 134.864 32.1008C133.51 33.152 131.818 33.6646 130.111 33.5406C128.405 33.4167 126.803 32.6648 125.614 31.4289C124.329 30.018 123.687 28.0497 123.687 25.5241C123.599 23.436 124.26 21.3856 125.551 19.7463C126.169 19.0026 126.951 18.4127 127.834 18.0227C128.717 17.6326 129.678 17.4529 130.642 17.4977C134.369 17.4977 136.466 19.51 136.933 23.5347Z" fill="white"/>
<path d="M151 17.7358V33.3337H147.436V26.8946H142.592V33.3337H139.028V17.7358H142.592V23.8099H147.436V17.7358H151Z" fill="white"/>
<path d="M24.8174 10.5823L27.7656 0.185429C27.7656 0.185429 26.0809 0.100773 24.6068 0.0478632L22.801 0.000244141C21.9113 0.000244141 21.011 0.000244141 20.0476 0.000244141C19.458 0.000244141 18.6314 0.0319902 18.1471 0.0531542L17.1626 0.116646L18.4998 10.5823H24.8174Z" fill="white"/>
<path d="M11.6609 11.7832L4.89062 4.9314C5.16842 4.61804 5.46936 4.3262 5.79088 4.05838C6.57252 3.36786 7.42903 2.76796 8.34422 2.27002C8.78118 2.03192 9.255 1.81499 9.7762 1.58748L10.0552 1.46579C10.329 1.35468 10.5817 1.26473 10.8239 1.16949C11.2503 1.01605 11.6504 0.889067 12.0189 0.788538C12.6402 0.622295 13.2715 0.49681 13.9089 0.412877C14.5565 0.32293 15.1198 0.27002 15.1198 0.27002L16.4991 10.5822C15.6437 10.658 14.7943 10.7906 13.9563 10.979C13.1699 11.1813 12.402 11.4504 11.6609 11.7832Z" fill="white"/>
<path d="M9.83949 12.8097L3.62723 6.56104C2.67145 8.00279 1.92514 9.57417 1.41082 11.2277C1.01382 12.3252 0.717761 13.4569 0.526367 14.6087L6.46487 17.1483C6.79658 16.3018 7.24111 15.5044 7.78629 14.778C8.35417 14.0092 9.04856 13.3435 9.83949 12.8097Z" fill="white"/>
<path d="M5.84889 19.0479L0.215736 16.6934C0.0201966 18.5737 -0.0519093 20.4649 -0.000113735 22.3547C-0.000113735 23.2066 0.136767 25.0584 0.136767 25.0584L5.1329 24.5293C5.14257 23.5223 5.21466 22.5168 5.34875 21.5188C5.4505 20.6832 5.61773 19.857 5.84889 19.0479Z" fill="white"/>
<path d="M5.17512 26.5928C5.17512 26.5928 5.17512 27.1748 5.26462 28.0266C5.40271 29.6582 5.65605 31.2778 6.02272 32.8732L2.19008 34.1483C2.19008 34.1483 1.71099 32.8679 1.19506 31.0372C0.83898 29.7366 0.564678 28.4148 0.373779 27.0795L5.17512 26.5928Z" fill="white"/>
<path d="M26.323 30.9209L11.3451 24.5717C11.2943 23.0915 11.4954 21.6134 11.94 20.2013C12.0529 19.8485 12.2048 19.5095 12.3928 19.1907C12.6102 18.8339 12.8682 18.5036 13.1614 18.2066C13.729 17.6711 14.4201 17.2857 15.1725 17.0849C15.6751 16.9297 16.1918 16.8252 16.715 16.7727C17.5047 16.6881 19.0525 16.7145 19.0525 16.7145H20.8162L21.669 23.5928L17.3205 21.741L17.7732 25.2701L25.4227 28.5135L23.5959 13.6458C23.5485 13.6458 18.8999 13.6458 18.8999 13.6458C17.7302 13.6533 16.5617 13.7205 15.3989 13.8468L14.8724 13.9262C13.8912 14.1062 12.951 14.4648 12.098 14.9844C11.5213 15.3437 11.0028 15.7898 10.5607 16.3071L10.3238 16.5928C9.38776 17.9159 8.76966 19.439 8.51801 21.0426C8.33719 22.1476 8.25614 23.2668 8.27584 24.3865C8.26859 26.6985 8.44464 29.0074 8.8023 31.2913C8.92835 32.0702 9.13842 32.8331 9.42879 33.5664C9.70802 34.2168 10.1227 34.7996 10.6449 35.2754C11.2193 35.7518 11.8464 36.1602 12.5139 36.4923C13.9037 37.1272 18.5945 39.1378 18.5945 39.1378C18.5945 39.1378 27.7339 43.0108 27.7655 43.0373L26.323 30.9209ZM11.861 31.6087C11.7873 31.2225 11.6715 30.0637 11.6715 30.0637L11.4715 27.995L23.5801 33.1325L24.2171 38.0955L14.5302 34.0055C14.5302 34.0055 13.5721 33.6193 13.272 33.4764C13.0431 33.3559 12.8292 33.2085 12.6349 33.0373C12.4491 32.8666 12.2879 32.6707 12.1559 32.4553C12.0056 32.1942 11.9056 31.907 11.861 31.6087Z" fill="#F18933"/>
<path d="M20.7741 35.4711L22.8905 36.3653L22.5851 33.8891L20.4688 33.0002L20.7741 35.4711Z" fill="#F18933"/>
<path d="M16.9046 33.8255L19.0631 34.7409L18.7577 32.2753L16.6045 31.3652L16.9046 33.8255Z" fill="#F18933"/>
<path d="M14.8881 30.6456L12.7244 29.7356L13.056 32.1906L15.1935 33.1007L14.8881 30.6456Z" fill="#F18933"/>
</g>
<defs>
<clipPath id="clip0">
<rect width="151" height="43" fill="white" transform="translate(0 0.000244141)"/>
</clipPath>
</defs>
</svg>
