<svg width="37" height="37" viewBox="0 0 37 37" fill="none" xmlns="http://www.w3.org/2000/svg">
<g clip-path="url(#clip0)">
<path d="M35.9883 32.3027H1.15625C0.485336 32.5195 0 33.0049 0 33.6035V35.916C0 36.5147 0.485336 37 1.08398 37H35.916C36.5147 37 37 36.5147 37 35.916V33.6035C37 33.0049 36.5147 32.5195 35.9883 32.3027Z" fill="#F18933"/>
<path d="M36.3315 7.31006L18.9155 0.0834946C18.6494 -0.026855 18.3506 -0.026855 18.0845 0.0834946L0.668529 7.31006C0.26377 7.47793 0 7.87308 0 8.31123V10.4792C0 11.0778 0.485336 11.5632 1.08398 11.5632H35.916C36.5147 11.5632 37 11.0778 37 10.4792V8.31123C37 7.87308 36.7362 7.47793 36.3315 7.31006ZM25.0039 8.31123H11.9961C11.3974 8.31123 10.9121 7.82589 10.9121 7.22724C10.9121 6.62859 11.3974 6.14326 11.9961 6.14326H25.0039C25.6026 6.14326 26.0879 6.62859 26.0879 7.22724C26.0879 7.82589 25.6026 8.31123 25.0039 8.31123Z" fill="#F18933"/>
<path d="M2.05957 28.1836V30.3516H10.3701V28.1836C10.3701 27.5849 9.88478 27.0996 9.28613 27.0996H3.14355C2.54491 27.0996 2.05957 27.5849 2.05957 28.1836Z" fill="#F0AA10"/>
<path d="M15 28.1836V30.3516H23.3105V28.1836C23.3105 27.5849 22.8252 27.0996 22.2266 27.0996H16.084C15.4853 27.0996 15 27.5849 15 28.1836Z" fill="#F0AA10"/>
<path d="M4 14H9V28H4V14Z" fill="#F0AA10"/>
<path d="M16 14H22V28H16V14Z" fill="#F0AA10"/>
<path d="M28 14H33V28H28V14Z" fill="#F0AA10"/>
<path d="M26.6299 28.1836V30.3516H34.9404V28.1836C34.9404 27.5849 34.4551 27.0996 33.8564 27.0996H27.7139C27.1152 27.0996 26.6299 27.5849 26.6299 28.1836Z" fill="#F0AA10"/>
</g>
<defs>
<clipPath id="clip0">
<rect width="37" height="37" fill="white"/>
</clipPath>
</defs>
</svg>
